<?xml version="1.0" encoding="utf-8"?>
<!-- Generator: Adobe Illustrator 27.1.1, SVG Export Plug-In . SVG Version: 6.00 Build 0)  -->
<svg version="1.1" id="Layer_1" xmlns="http://www.w3.org/2000/svg" xmlns:xlink="http://www.w3.org/1999/xlink" x="0px" y="0px"
	 viewBox="0 0 1602.5 1108.8" style="enable-background:new 0 0 1108.8 1602.5;" xml:space="preserve">
<style type="text/css">
	.st0{fill:none;stroke:#000000;stroke-width:0.72;stroke-linejoin:bevel;}
	.st1{fill-rule:evenodd;clip-rule:evenodd;fill:#0000FF;}
	.st2{fill:none;stroke:#0000FF;stroke-width:0.72;stroke-linejoin:bevel;}
	.st3{fill:#0000FF;}
	.st4{fill:none;stroke:#0000FF;stroke-width:1.02;stroke-linejoin:bevel;}
	.st5{fill-rule:evenodd;clip-rule:evenodd;fill:#00FFFF;}
	.st6{fill:none;stroke:#00FFFF;stroke-width:1.02;stroke-linejoin:bevel;}
	.st7{fill:#00FFFF;}
	.st8{fill:none;stroke:#00FFFF;stroke-width:0.72;stroke-linejoin:bevel;}
	.st9{fill-rule:evenodd;clip-rule:evenodd;fill:#65FF00;}
	.st10{fill:none;stroke:#65FF00;stroke-width:0.72;stroke-linejoin:bevel;}
	.st11{fill:#65FF00;}
	.st12{fill:none;stroke:#65FF00;stroke-width:1.02;stroke-linejoin:bevel;}
	.st13{fill-rule:evenodd;clip-rule:evenodd;fill:#FFCC00;}
	.st14{fill:none;stroke:#FFCC00;stroke-width:1.02;stroke-linejoin:bevel;}
	.st15{fill:none;stroke:#FFCC00;stroke-width:0.72;stroke-linejoin:bevel;}
	.st16{fill:none;stroke:#CC65FF;stroke-width:1.02;stroke-linejoin:bevel;}
	.st17{fill:none;stroke:#CC65FF;stroke-width:0.72;stroke-linejoin:bevel;}
	.st18{fill:#CC65FF;}
	.st19{fill-rule:evenodd;clip-rule:evenodd;fill:#CC65FF;}
	.st20{fill-rule:evenodd;clip-rule:evenodd;fill:#FF0000;}
	.st21{fill:none;stroke:#FF0000;stroke-width:0.72;stroke-linejoin:bevel;}
	.st22{fill:#FF0000;}
	.st23{fill:#FFCC00;}
	.st24{fill:none;stroke:#FF0000;stroke-width:1.02;stroke-linejoin:bevel;}
	.st25{fill-rule:evenodd;clip-rule:evenodd;fill:#965C00;}
	.st26{fill:none;stroke:#965C00;stroke-width:0.72;stroke-linejoin:bevel;}
	.st27{fill:none;stroke:#965C00;stroke-width:1.02;stroke-linejoin:bevel;}
	.st28{fill-rule:evenodd;clip-rule:evenodd;fill:#838383;}
	.st29{fill:none;stroke:#838383;stroke-width:0.72;stroke-linejoin:bevel;}
</style>
<g id="SeasideOutFeed">
	<line class="st0" x1="300.3" y1="1042.2" x2="305.7" y2="1037.7"/>
	<polyline class="st1" points="294.8,1015.8 282.7,1015.8 284.4,1017.8 294.8,1017.8 	"/>
	<polyline class="st2" points="294.8,1015.8 294.8,1017.8 285.7,1017.8 	"/>
	<line class="st2" x1="294.8" y1="1015.8" x2="284" y2="1015.8"/>
	<line class="st2" x1="294.8" y1="1016.8" x2="283.6" y2="1016.8"/>
	<polyline class="st1" points="197,962.7 191.1,955.6 188.5,955.6 194.5,962.7 	"/>
	<line class="st2" x1="193.6" y1="961.6" x2="189.4" y2="956.6"/>
	<line class="st2" x1="196.2" y1="961.6" x2="191.9" y2="956.6"/>
	<line class="st2" x1="195.8" y1="962.7" x2="189.8" y2="955.6"/>
	<polyline class="st1" points="182.8,962.7 188.8,955.6 186.2,955.6 180.2,962.7 	"/>
	<line class="st2" x1="181" y1="961.6" x2="185.3" y2="956.6"/>
	<line class="st2" x1="183.7" y1="961.6" x2="187.9" y2="956.6"/>
	<line class="st2" x1="181.5" y1="962.7" x2="187.4" y2="955.6"/>
	<rect x="140.9" y="952.7" class="st3" width="1.4" height="10"/>
	<polyline class="st4" points="140.9,952.7 142.4,952.7 142.4,961.6 	"/>
	<line class="st4" x1="140.9" y1="952.7" x2="140.9" y2="961.6"/>
	<line class="st4" x1="141.7" y1="952.7" x2="141.7" y2="962.7"/>
	<polyline class="st1" points="280.1,1048 297.5,1033.5 296.6,1032.4 278.2,1047.9 	"/>
	<polyline class="st4" points="282.4,1050.8 281.3,1051.7 278.2,1047.9 295.9,1033 	"/>
	<polyline class="st4" points="282.4,1050.8 280.1,1048 296.8,1034.1 	"/>
	<polyline class="st4" points="281.9,1051.2 279.2,1047.9 297.1,1032.9 	"/>
	<polyline class="st1" points="118.1,962.7 103,944.7 102.1,946.6 115.5,962.7 	"/>
	<polyline class="st2" points="114.7,961.6 102.1,946.6 7.5,946.6 	"/>
	<polyline class="st2" points="117.2,961.6 103,944.7 7.5,944.7 	"/>
	<polyline class="st2" points="116.8,962.7 102.5,945.6 7.5,945.6 	"/>
	<polyline class="st1" points="237.6,963.6 302.2,1040.6 303.7,1039.3 238.6,961.6 	"/>
	<polyline class="st2" points="93.4,963.6 93.4,961.6 238.6,961.6 303.7,1039.3 	"/>
	<polyline class="st2" points="93.4,963.6 237.6,963.6 302.2,1040.6 	"/>
	<polyline class="st2" points="93.4,962.7 238.1,962.7 303,1040 	"/>
	<polyline class="st1" points="282.4,1050.8 280.1,1048 278.2,1047.9 281.3,1051.7 	"/>
	<line class="st2" x1="7.5" y1="949.2" x2="7.5" y2="942.1"/>
	<polyline class="st1" points="103,944.7 7.5,944.7 7.5,946.6 102.1,946.6 	"/>
	<polyline class="st1" points="93.4,963.6 237.6,963.6 238.6,961.6 93.4,961.6 	"/>
	<line class="st2" x1="181" y1="961.6" x2="121.6" y2="961.6"/>
	<polyline class="st5" points="365.2,971.8 365.2,945.6 363.8,945.6 363.8,973.3 	"/>
	<polyline class="st6" points="368.7,971.8 368.7,973.3 363.8,973.3 363.8,945.6 	"/>
	<polyline class="st6" points="368.7,971.8 365.2,971.8 365.2,945.6 	"/>
	<polyline class="st6" points="368.7,972.6 364.5,972.6 364.5,945.6 	"/>
	<rect x="364.5" y="944.7" class="st7" width="9.2" height="2"/>
	<line class="st8" x1="373.7" y1="945.6" x2="365.8" y2="945.6"/>
	<polyline class="st8" points="373.7,944.7 373.7,946.6 364.5,946.6 	"/>
	<line class="st8" x1="373.7" y1="944.7" x2="364.5" y2="944.7"/>
	<polyline class="st5" points="410.6,848.2 410.6,822 409.2,822 409.2,849.6 	"/>
	<polyline class="st6" points="414.2,848.2 414.2,849.6 409.2,849.6 409.2,822 	"/>
	<polyline class="st6" points="414.2,848.2 410.6,848.2 410.6,822 	"/>
	<polyline class="st6" points="414.2,848.9 409.9,848.9 409.9,822 	"/>
	<rect x="409.9" y="821" class="st7" width="9.2" height="2"/>
	<line class="st8" x1="419.2" y1="822" x2="411.2" y2="822"/>
	<polyline class="st8" points="419.2,821 419.2,823 409.9,823 	"/>
	<line class="st8" x1="419.2" y1="821" x2="409.9" y2="821"/>
	<polyline class="st5" points="303.9,946.3 407.3,823 406.4,821 302.4,945 	"/>
	<polyline class="st8" points="303.9,946.3 302.4,945 406.4,821 409.9,821 	"/>
	<polyline class="st8" points="303.9,946.3 407.3,823 409.9,823 	"/>
	<polyline class="st8" points="303.1,945.6 406.9,822 409.9,822 	"/>
	<polyline class="st5" points="399.4,808.6 384.2,796 383.3,797.1 399.5,810.6 	"/>
	<polyline class="st6" points="401.6,805.9 402.7,806.8 399.5,810.6 384.1,797.7 	"/>
	<polyline class="st6" points="401.6,805.9 399.4,808.6 385,796.6 	"/>
	<polyline class="st6" points="402.2,806.4 399.5,809.6 383.8,796.5 	"/>
	<polyline class="st5" points="365.2,1048.4 365.2,1022.2 363.8,1022.2 363.8,1049.8 	"/>
	<polyline class="st6" points="368.7,1048.4 368.7,1049.8 363.8,1049.8 363.8,1022.2 	"/>
	<polyline class="st6" points="368.7,1048.4 365.2,1048.4 365.2,1022.2 	"/>
	<polyline class="st6" points="368.7,1049.1 364.5,1049.1 364.5,1022.2 	"/>
	<rect x="364.5" y="1021.2" class="st7" width="9.2" height="2"/>
	<line class="st8" x1="373.7" y1="1022.2" x2="365.8" y2="1022.2"/>
	<polyline class="st8" points="373.7,1021.2 373.7,1023.1 364.5,1023.1 	"/>
	<line class="st8" x1="373.7" y1="1021.2" x2="364.5" y2="1021.2"/>
	<polyline class="st5" points="364.5,1021.2 353.5,1021.2 352.6,1023.1 364.5,1023.1 	"/>
	<polyline class="st5" points="353.5,1021.2 289.6,945 288.1,946.3 352.6,1023.1 	"/>
	<polyline class="st8" points="364.5,1021.2 364.5,1023.1 352.6,1023.1 288.1,946.3 	"/>
	<polyline class="st8" points="364.5,1021.2 353.5,1021.2 289.6,945 	"/>
	<polyline class="st8" points="364.5,1022.2 353.1,1022.2 288.8,945.6 	"/>
	<polyline class="st5" points="274.9,971.8 269.2,964.9 267.7,966.1 273.4,973 	"/>
	<line class="st8" x1="269.2" y1="964.9" x2="267.7" y2="966.1"/>
	<polyline class="st8" points="274.9,971.8 273.4,973 267.7,966.1 	"/>
	<line class="st8" x1="274.9" y1="971.8" x2="269.2" y2="964.9"/>
	<polyline class="st5" points="269.2,964.9 252.5,945 251,946.3 267.7,966.1 	"/>
	<polyline class="st8" points="269.2,964.9 267.7,966.1 251,946.3 	"/>
	<line class="st8" x1="269.2" y1="964.9" x2="252.5" y2="945"/>
	<line class="st8" x1="268.4" y1="965.5" x2="251.7" y2="945.6"/>
	<polyline class="st5" points="195.1,945 188.5,952.8 191.2,952.8 196.6,946.3 	"/>
	<line class="st8" x1="195.8" y1="945.7" x2="190.7" y2="951.7"/>
	<polyline class="st8" points="195.1,945 196.6,946.3 192,951.7 	"/>
	<line class="st8" x1="195.1" y1="945" x2="189.4" y2="951.7"/>
	<polyline class="st5" points="180.7,946.3 186.1,952.8 188.7,952.8 182.2,945 	"/>
	<line class="st8" x1="181.4" y1="945.7" x2="186.5" y2="951.7"/>
	<polyline class="st8" points="180.7,946.3 182.2,945 187.9,951.7 	"/>
	<line class="st8" x1="180.7" y1="946.3" x2="185.3" y2="951.7"/>
	<line class="st8" x1="7.5" y1="932.2" x2="7.5" y2="925.1"/>
	<rect x="140.9" y="928.6" class="st7" width="1.4" height="9.9"/>
	<polyline class="st6" points="142.4,938.5 140.9,938.5 140.9,929.6 	"/>
	<line class="st6" x1="142.4" y1="938.5" x2="142.4" y2="929.6"/>
	<line class="st6" x1="141.7" y1="938.5" x2="141.7" y2="928.6"/>
	<polyline class="st5" points="166.4,944.7 152.2,927.6 151.3,929.6 165.5,946.6 	"/>
	<polyline class="st5" points="152.2,927.6 95.9,927.6 95.9,929.6 151.3,929.6 	"/>
	<polyline class="st8" points="165.5,946.6 151.3,929.6 95.9,929.6 	"/>
	<polyline class="st8" points="166.4,944.7 152.2,927.6 95.9,927.6 	"/>
	<polyline class="st8" points="166,945.6 151.7,928.6 95.9,928.6 	"/>
	<rect x="7.5" y="927.6" class="st7" width="88.4" height="2"/>
	<line class="st8" x1="7.5" y1="927.6" x2="7.5" y2="929.6"/>
	<line class="st8" x1="95.9" y1="929.6" x2="7.5" y2="929.6"/>
	<line class="st8" x1="95.9" y1="928.6" x2="7.5" y2="928.6"/>
	<line class="st8" x1="238.6" y1="961.6" x2="237.6" y2="963.6"/>
	<polyline class="st5" points="383.9,872 322.7,945 324.2,946.3 384.8,874 	"/>
	<line class="st8" x1="384.8" y1="874" x2="324.2" y2="946.3"/>
	<line class="st8" x1="383.9" y1="872" x2="322.7" y2="945"/>
	<line class="st8" x1="384.4" y1="873" x2="323.5" y2="945.6"/>
	<polyline class="st5" points="394.6,872 383.9,872 384.8,874 394.6,874 	"/>
	<line class="st8" x1="394.6" y1="873" x2="386.6" y2="873"/>
	<polyline class="st8" points="394.6,872 394.6,874 384.8,874 	"/>
	<line class="st8" x1="394.6" y1="872" x2="383.9" y2="872"/>
	<polyline class="st5" points="389,788.7 257.2,945.6 259.8,945.6 390.6,790 	"/>
	<line class="st8" x1="390.6" y1="790" x2="260.6" y2="944.7"/>
	<line class="st8" x1="389" y1="788.7" x2="258" y2="944.7"/>
	<line class="st8" x1="389.8" y1="789.3" x2="258.5" y2="945.6"/>
	<polyline class="st5" points="364.5,944.7 166.4,944.7 165.5,946.6 364.5,946.6 	"/>
	<polyline class="st8" points="364.5,944.7 364.5,946.6 165.5,946.6 	"/>
	<line class="st8" x1="364.5" y1="944.7" x2="260.6" y2="944.7"/>
	<line class="st8" x1="364.5" y1="945.6" x2="166" y2="945.6"/>
	<polyline class="st5" points="368.7,971.8 365.2,971.8 363.8,973.3 368.7,973.3 	"/>
	<line class="st6" x1="365.2" y1="945.6" x2="363.8" y2="945.6"/>
	<line class="st8" x1="364.5" y1="944.7" x2="364.5" y2="946.6"/>
	<polyline class="st5" points="368.7,1048.4 365.2,1048.4 363.8,1049.8 368.7,1049.8 	"/>
	<line class="st6" x1="365.2" y1="1022.2" x2="363.8" y2="1022.2"/>
	<line class="st8" x1="364.5" y1="1021.2" x2="364.5" y2="1023.1"/>
	<line class="st8" x1="289.6" y1="945" x2="288.1" y2="946.3"/>
	<line class="st8" x1="274.2" y1="972.4" x2="269.1" y2="966.3"/>
	<line class="st8" x1="252.5" y1="945" x2="251" y2="946.3"/>
	<line class="st8" x1="95.9" y1="927.6" x2="7.5" y2="927.6"/>
	<line class="st8" x1="322.7" y1="945" x2="324.2" y2="946.3"/>
	<line class="st8" x1="258" y1="944.7" x2="166.4" y2="944.7"/>
	<polyline class="st5" points="414.2,848.2 410.6,848.2 409.2,849.6 414.2,849.6 	"/>
	<line class="st6" x1="410.6" y1="822" x2="409.2" y2="822"/>
	<line class="st8" x1="409.9" y1="821" x2="409.9" y2="823"/>
	<polyline class="st5" points="407.3,823 409.9,823 409.9,821 406.4,821 	"/>
	<line class="st8" x1="409.9" y1="823" x2="409.9" y2="821"/>
	<polyline class="st5" points="401.6,805.9 399.4,808.6 399.5,810.6 402.7,806.8 	"/>
</g>
<g id="LandsideInFeeder2">
	<rect x="794.9" y="944.7" class="st3" width="9.2" height="2"/>
	<line class="st2" x1="804.2" y1="945.6" x2="796.3" y2="945.6"/>
	<line class="st2" x1="794.9" y1="944.7" x2="794.9" y2="946.6"/>
	<polyline class="st2" points="804.2,944.7 804.2,946.6 794.9,946.6 	"/>
	<line class="st2" x1="804.2" y1="944.7" x2="794.9" y2="944.7"/>
	<polyline class="st1" points="794.3,918 794.3,945.6 795.7,945.6 795.7,919.4 	"/>
	<line class="st4" x1="794.3" y1="945.6" x2="795.7" y2="945.6"/>
	<polyline class="st4" points="799.2,918 799.2,919.4 795.7,919.4 795.7,945.6 	"/>
	<polyline class="st4" points="799.2,918 794.3,918 794.3,945.6 	"/>
	<polyline class="st4" points="799.2,918.7 794.9,918.7 794.9,945.6 	"/>
	<polyline class="st1" points="641.2,945 626.6,927.6 625.7,929.6 639.7,946.3 	"/>
	<polyline class="st1" points="626.6,927.6 614,927.6 614,929.6 625.7,929.6 	"/>
	<polyline class="st2" points="641.2,945 639.7,946.3 625.7,929.6 614,929.6 	"/>
	<polyline class="st2" points="641.2,945 626.6,927.6 614,927.6 	"/>
	<polyline class="st2" points="640.4,945.6 626.2,928.6 614,928.6 	"/>
	<rect x="604.9" y="927.6" class="st3" width="9.2" height="2"/>
	<line class="st2" x1="614" y1="928.6" x2="606.1" y2="928.6"/>
	<polyline class="st2" points="614,927.6 614,929.6 604.9,929.6 	"/>
	<line class="st2" x1="614" y1="927.6" x2="604.9" y2="927.6"/>
	<polyline class="st1" points="613.3,908 613.3,928.6 614.8,928.6 614.8,906.6 	"/>
	<line class="st4" x1="613.3" y1="928.6" x2="614.8" y2="928.6"/>
	<polyline class="st4" points="609.8,908 609.8,906.6 614.8,906.6 614.8,928.6 	"/>
	<polyline class="st4" points="609.8,908 613.3,908 613.3,928.6 	"/>
	<polyline class="st4" points="609.8,907.3 614,907.3 614,928.6 	"/>
	<rect x="603.1" y="880.5" class="st3" width="11.9" height="2"/>
	<line class="st2" x1="615" y1="881.5" x2="607.1" y2="881.5"/>
	<polyline class="st2" points="615,880.5 615,882.5 603.1,882.5 	"/>
	<line class="st2" x1="615" y1="880.5" x2="603.1" y2="880.5"/>
	<polyline class="st1" points="604.7,867.7 598.9,860.8 597.4,862.1 603.2,868.9 	"/>
	<line class="st2" x1="604" y1="868.3" x2="598.9" y2="862.3"/>
	<polyline class="st2" points="604.7,867.7 603.2,868.9 597.4,862.1 	"/>
	<rect x="569.8" y="804" class="st3" width="9.2" height="2"/>
	<line class="st2" x1="579" y1="805" x2="571.1" y2="805"/>
	<polyline class="st2" points="579,804 579,805.9 569.8,805.9 	"/>
	<line class="st2" x1="579" y1="804" x2="569.8" y2="804"/>
	<polyline class="st1" points="578.3,784.3 578.3,805 579.7,805 579.7,783 	"/>
	<polyline class="st4" points="574.7,784.3 574.7,783 579.7,783 579.7,805 	"/>
	<polyline class="st4" points="574.7,784.3 578.3,784.3 578.3,805 	"/>
	<polyline class="st4" points="574.7,783.7 579,783.7 579,805 	"/>
	<polyline class="st1" points="598,794.2 592.2,787.3 590.6,788.6 596.5,795.5 	"/>
	<line class="st2" x1="597.2" y1="794.8" x2="592.1" y2="788.8"/>
	<polyline class="st2" points="598,794.2 596.5,795.5 590.6,788.6 	"/>
	<line class="st2" x1="598" y1="794.2" x2="592.2" y2="787.3"/>
	<line class="st2" x1="604.9" y1="805.6" x2="606.4" y2="804.3"/>
	<polyline class="st1" points="634.1,763.3 613.6,780.5 614.5,781.6 636.2,763.5 	"/>
	<polyline class="st4" points="631.9,760.6 633,759.7 636.2,763.5 615.3,780.9 	"/>
	<polyline class="st4" points="632.5,760.2 635.2,763.4 614.1,781 	"/>
	<polyline class="st1" points="615.3,780.9 608.8,773.2 607.3,774.4 613.8,782.2 	"/>
	<line class="st2" x1="614.5" y1="781.6" x2="609.4" y2="775.5"/>
	<line class="st2" x1="609.8" y1="777.4" x2="607.3" y2="774.4"/>
	<line class="st2" x1="611.9" y1="780" x2="611" y2="778.9"/>
	<polyline class="st1" points="613.8,782.2 751.4,946.3 752.9,945 615.3,780.9 	"/>
	<line class="st2" x1="751.4" y1="946.3" x2="752.9" y2="945"/>
	<polyline class="st2" points="613.8,782.2 615.3,780.9 752.9,945 	"/>
	<line class="st2" x1="613.8" y1="782.2" x2="751.4" y2="946.3"/>
	<line class="st2" x1="614.5" y1="781.6" x2="752.2" y2="945.6"/>
	<polyline class="st1" points="670.1,945.6 604.7,867.7 603.2,869 667.6,945.6 	"/>
	<line class="st2" x1="666.7" y1="944.7" x2="603.2" y2="869"/>
	<line class="st2" x1="669.3" y1="944.7" x2="604.7" y2="867.7"/>
	<line class="st2" x1="668.8" y1="945.6" x2="604" y2="868.3"/>
	<rect x="604.9" y="944.7" class="st3" width="9.2" height="2"/>
	<line class="st2" x1="614" y1="945.6" x2="606.1" y2="945.6"/>
	<polyline class="st2" points="614,944.7 614,946.6 604.9,946.6 	"/>
	<line class="st2" x1="614" y1="944.7" x2="604.9" y2="944.7"/>
	<rect x="604.9" y="961.6" class="st3" width="9.2" height="2"/>
	<line class="st2" x1="614" y1="962.7" x2="606.1" y2="962.7"/>
	<polyline class="st2" points="614,961.6 614,963.6 604.9,963.6 	"/>
	<line class="st2" x1="614" y1="961.6" x2="604.9" y2="961.6"/>
	<rect x="604.9" y="978.7" class="st3" width="9.2" height="2"/>
	<line class="st2" x1="614" y1="979.6" x2="606.1" y2="979.6"/>
	<polyline class="st2" points="614,978.7 614,980.7 604.9,980.7 	"/>
	<line class="st2" x1="614" y1="978.7" x2="604.9" y2="978.7"/>
	<polyline class="st1" points="638,961.6 608.6,961.6 608.6,963.6 636.4,963.6 	"/>
	<line class="st2" x1="635.1" y1="963.6" x2="608.6" y2="963.6"/>
	<line class="st2" x1="636.8" y1="961.6" x2="608.6" y2="961.6"/>
	<line class="st2" x1="637.2" y1="962.7" x2="608.6" y2="962.7"/>
	<polyline class="st1" points="650.2,945.6 622.5,978.7 623.4,980.7 652.8,945.6 	"/>
	<polyline class="st2" points="652,946.6 623.4,980.7 614,980.7 	"/>
	<line class="st2" x1="649.4" y1="946.6" x2="636.8" y2="961.6"/>
	<polyline class="st2" points="651.5,945.6 623,979.6 614,979.6 	"/>
	<polyline class="st1" points="654.1,973.3 648.2,980.4 649.7,981.6 655.6,974.5 	"/>
	<line class="st2" x1="654.9" y1="973.9" x2="649.8" y2="980"/>
	<polyline class="st2" points="654.1,973.3 655.6,974.5 649.7,981.6 	"/>
	<line class="st2" x1="654.1" y1="973.3" x2="648.2" y2="980.4"/>
	<polyline class="st1" points="655.7,974.5 679.9,945.6 677.3,945.6 654.1,973.3 	"/>
	<polyline class="st2" points="655.7,974.5 654.1,973.3 676.5,946.6 	"/>
	<line class="st2" x1="655.7" y1="974.5" x2="679.1" y2="946.6"/>
	<line class="st2" x1="654.9" y1="973.9" x2="678.7" y2="945.6"/>
	<rect x="614" y="944.7" class="st3" width="180.9" height="2"/>
	<line class="st2" x1="794.9" y1="944.7" x2="794.9" y2="946.6"/>
	<line class="st2" x1="649.4" y1="946.6" x2="614" y2="946.6"/>
	<line class="st2" x1="676.5" y1="946.6" x2="652" y2="946.6"/>
	<line class="st2" x1="794.9" y1="946.6" x2="679.1" y2="946.6"/>
	<line class="st2" x1="666.7" y1="944.7" x2="614" y2="944.7"/>
	<line class="st2" x1="794.9" y1="944.7" x2="669.3" y2="944.7"/>
	<line class="st2" x1="794.9" y1="945.6" x2="614" y2="945.6"/>
	<polyline class="st1" points="673.8,988.9 655.4,973.4 654.4,974.5 671.8,989.1 	"/>
	<polyline class="st4" points="670.6,992.7 669.5,991.8 671.8,989.1 655.2,975.1 	"/>
	<polyline class="st4" points="670.6,992.7 673.8,988.9 656.1,974 	"/>
	<polyline class="st4" points="670.1,992.2 672.8,988.9 654.9,973.9 	"/>
	<polyline class="st1" points="663.2,1022.6 727.3,946.3 725.8,945 661.7,1021.3 	"/>
	<line class="st2" x1="727.3" y1="946.3" x2="725.8" y2="945"/>
	<polyline class="st2" points="663.2,1022.6 661.7,1021.3 725.8,945 	"/>
	<line class="st2" x1="663.2" y1="1022.6" x2="727.3" y2="946.3"/>
	<line class="st2" x1="662.5" y1="1022" x2="726.6" y2="945.6"/>
	<rect x="579" y="804" class="st3" width="55.1" height="2"/>
	<polyline class="st2" points="634.1,804 634.1,805.9 579,805.9 	"/>
	<line class="st2" x1="634.1" y1="804" x2="579" y2="804"/>
	<line class="st2" x1="634.1" y1="805" x2="579" y2="805"/>
	<polyline class="st1" points="609.8,908 613.3,908 614.8,906.6 609.8,906.6 	"/>
	<line class="st2" x1="605.1" y1="881.5" x2="603.1" y2="881.5"/>
	<line class="st2" x1="604.7" y1="867.7" x2="598.9" y2="860.8"/>
	<polyline class="st1" points="574.7,784.3 578.3,784.3 579.7,783 574.7,783 	"/>
	<line class="st4" x1="578.3" y1="805" x2="579.7" y2="805"/>
	<polyline class="st1" points="596.5,795.5 604.9,805.6 606.4,804.3 598,794.2 	"/>
	<polyline class="st2" points="596.5,795.5 598,794.2 606.4,804.3 	"/>
	<line class="st2" x1="596.5" y1="795.5" x2="604.9" y2="805.6"/>
	<line class="st2" x1="597.2" y1="794.8" x2="605.7" y2="805"/>
	<polyline class="st1" points="631.9,760.6 634.1,763.3 636.2,763.5 633,759.7 	"/>
	<polyline class="st4" points="631.9,760.6 634.1,763.3 614.4,779.8 	"/>
	<line class="st2" x1="608.6" y1="961.6" x2="608.6" y2="963.6"/>
	<polyline class="st1" points="622.5,978.7 614,978.7 614,980.7 623.4,980.7 	"/>
	<polyline class="st2" points="635.1,963.6 622.5,978.7 614,978.7 	"/>
	<polyline class="st1" points="670.6,992.7 673.8,988.9 671.8,989.1 669.5,991.8 	"/>
	<polyline class="st1" points="681.4,1036.9 662.9,1021.4 662,1022.5 679.4,1037.1 	"/>
	<polyline class="st4" points="678.2,1040.7 677.1,1039.8 679.4,1037.1 662.8,1023.1 	"/>
	<polyline class="st4" points="678.2,1040.7 681.4,1036.9 663.7,1022.1 	"/>
	<polyline class="st4" points="677.6,1040.2 680.4,1037 662.5,1022 	"/>
	<polyline class="st1" points="661.7,1021.3 655.8,1028.4 657.3,1029.7 663.2,1022.6 	"/>
	<line class="st2" x1="662.5" y1="1022" x2="657.4" y2="1028.1"/>
	<line class="st2" x1="661.7" y1="1021.3" x2="655.8" y2="1028.4"/>
	<line class="st2" x1="615.3" y1="780.9" x2="613.8" y2="782.2"/>
	<line class="st2" x1="613.8" y1="782.2" x2="612.4" y2="780.5"/>
	<line class="st2" x1="610.2" y1="774.9" x2="608.8" y2="773.2"/>
	<line class="st2" x1="614.4" y1="779.8" x2="611.4" y2="776.3"/>
	<line class="st2" x1="615.3" y1="780.9" x2="615.2" y2="780.9"/>
	<polyline class="st1" points="799.2,918 794.3,918 795.7,919.4 799.2,919.4 	"/>
	<polyline class="st1" points="678.2,1040.7 681.4,1036.9 679.4,1037.1 677.1,1039.8 	"/>
	<line class="st2" x1="661.7" y1="1021.3" x2="663.2" y2="1022.6"/>
	<line class="st2" x1="662.8" y1="1023.1" x2="657.3" y2="1029.7"/>
	<line class="st2" x1="663.2" y1="1022.6" x2="662.8" y2="1023.1"/>
</g>
<g id="LandsideInFeeder1">
	<polyline class="st9" points="917,945 910.5,952.7 913.1,952.7 918.5,946.3 	"/>
	<line class="st10" x1="917.8" y1="945.6" x2="912.7" y2="951.7"/>
	<polyline class="st10" points="917,945 918.5,946.3 913.9,951.7 	"/>
	<line class="st10" x1="917" y1="945" x2="911.3" y2="951.7"/>
	<polyline class="st9" points="902.6,946.3 908.1,952.7 910.7,952.7 904.2,945 	"/>
	<line class="st10" x1="903.4" y1="945.6" x2="908.5" y2="951.7"/>
	<polyline class="st10" points="902.6,946.3 904.2,945 909.8,951.7 	"/>
	<line class="st10" x1="902.6" y1="946.3" x2="907.3" y2="951.7"/>
	<polyline class="st9" points="996.4,907.8 988.6,916.5 989.5,918.5 997.9,909 	"/>
	<polyline class="st9" points="988.6,916.5 966.9,916.5 966.9,918.5 989.5,918.5 	"/>
	<line class="st10" x1="966.9" y1="916.5" x2="966.9" y2="918.5"/>
	<polyline class="st10" points="996.4,907.8 997.9,909 989.5,918.5 966.9,918.5 	"/>
	<polyline class="st10" points="996.4,907.8 988.6,916.5 966.9,916.5 	"/>
	<polyline class="st10" points="997.1,908.4 989.1,917.5 966.9,917.5 	"/>
	<polyline class="st9" points="968.8,913.8 942.8,944.7 943.7,946.6 970.3,915 	"/>
	<polyline class="st10" points="968.8,913.8 970.3,915 943.7,946.6 817.6,946.6 	"/>
	<polyline class="st10" points="968.8,913.8 942.8,944.7 817.6,944.7 	"/>
	<polyline class="st10" points="969.5,914.4 943.3,945.6 817.6,945.6 	"/>
	<polyline class="st9" points="970.1,885.7 949.5,910.3 951.6,910.8 971.6,887 	"/>
	<polyline class="st10" points="970.1,885.7 971.6,887 951.6,910.8 	"/>
	<line class="st10" x1="970.1" y1="885.7" x2="949.5" y2="910.3"/>
	<line class="st10" x1="970.9" y1="886.3" x2="950.5" y2="910.5"/>
	<rect x="808.4" y="944.7" class="st11" width="9.2" height="2"/>
	<line class="st10" x1="817.6" y1="945.6" x2="809.7" y2="945.6"/>
	<polyline class="st10" points="817.6,944.7 817.6,946.6 808.4,946.6 	"/>
	<line class="st10" x1="817.6" y1="944.7" x2="808.4" y2="944.7"/>
	<polyline class="st9" points="817,919.4 817,945.6 818.3,945.6 818.3,918 	"/>
	<polyline class="st12" points="813.4,919.4 813.4,918 818.3,918 818.3,945.6 	"/>
	<polyline class="st12" points="813.4,919.4 817,919.4 817,945.6 	"/>
	<polyline class="st12" points="813.4,918.7 817.6,918.7 817.6,945.6 	"/>
	<polyline class="st9" points="872.6,918 872.6,945.6 874.1,945.6 874.1,919.4 	"/>
	<polyline class="st12" points="877.6,918 877.6,919.4 874.1,919.4 874.1,945.6 	"/>
	<polyline class="st12" points="877.6,918 872.6,918 872.6,945.6 	"/>
	<polyline class="st12" points="877.6,918.7 873.4,918.7 873.4,945.6 	"/>
	<polyline class="st9" points="861.8,900.7 841.3,917.1 842.2,918.2 863.8,900.9 	"/>
	<polyline class="st12" points="859.6,897.9 860.6,897.1 863.8,900.9 842.2,918.2 	"/>
	<polyline class="st12" points="859.6,897.9 861.8,900.7 841.3,917.1 	"/>
	<polyline class="st12" points="860.1,897.5 862.7,900.8 841.7,917.7 	"/>
	<polyline class="st9" points="835,910.8 864.8,946.3 866.3,945 836.5,909.5 	"/>
	<polyline class="st10" points="835,910.8 836.5,909.5 866.3,945 	"/>
	<line class="st10" x1="835" y1="910.8" x2="864.8" y2="946.3"/>
	<line class="st10" x1="835.8" y1="910.1" x2="865.6" y2="945.6"/>
	<polyline class="st9" points="943.4,875.6 964.6,893.4 965.5,892.3 945.4,875.4 	"/>
	<polyline class="st12" points="946.6,871.8 947.7,872.7 945.4,875.4 965.5,892.3 	"/>
	<polyline class="st12" points="946.6,871.8 943.4,875.6 964.6,893.4 	"/>
	<polyline class="st12" points="947.2,872.2 944.5,875.5 965,892.8 	"/>
	<polyline class="st9" points="949.5,910.3 953.4,932.6 955.4,932.2 951.6,910.8 	"/>
	<line class="st10" x1="951.6" y1="910.8" x2="955.4" y2="932.2"/>
	<line class="st10" x1="949.5" y1="910.3" x2="953.4" y2="932.6"/>
	<line class="st10" x1="950.5" y1="910.5" x2="954.4" y2="932.4"/>
	<polyline class="st9" points="942.8,944.7 817.6,944.7 817.6,946.6 943.7,946.6 	"/>
	<polyline class="st9" points="813.4,919.4 817,919.4 818.3,918 813.4,918 	"/>
	<polyline class="st9" points="877.6,918 872.6,918 874.1,919.4 877.6,919.4 	"/>
	<polyline class="st9" points="859.6,897.9 861.8,900.7 863.8,900.9 860.6,897.1 	"/>
	<line class="st12" x1="841.3" y1="917.1" x2="842.2" y2="918.2"/>
	<polyline class="st9" points="946.6,871.8 943.4,875.6 945.4,875.4 947.7,872.7 	"/>
	<line class="st12" x1="964.6" y1="893.4" x2="965.5" y2="892.3"/>
	<line class="st10" x1="953.4" y1="932.6" x2="955.4" y2="932.2"/>
	<line class="st10" x1="817.6" y1="944.7" x2="817.6" y2="946.6"/>
	<line class="st12" x1="817" y1="945.6" x2="818.3" y2="945.6"/>
	<line class="st12" x1="872.6" y1="945.6" x2="874.1" y2="945.6"/>
	<line class="st10" x1="864.8" y1="946.3" x2="866.3" y2="945"/>
</g>
<g id="SeasideInFeeder2">
	<polyline class="st13" points="839.7,988.9 839.7,962.7 838.3,962.7 838.3,990.3 	"/>
	<polyline class="st14" points="843.2,988.9 843.2,990.3 838.3,990.3 838.3,962.7 	"/>
	<polyline class="st14" points="843.2,988.9 839.7,988.9 839.7,962.7 	"/>
	<polyline class="st14" points="843.2,989.6 839,989.6 839,962.7 	"/>
	<polyline class="st13" points="685.8,1088.1 667.4,1072.7 666.5,1073.7 683.8,1088.3 	"/>
	<polyline class="st14" points="682.6,1091.9 681.5,1091 683.8,1088.3 667.2,1074.3 	"/>
	<polyline class="st14" points="682.6,1091.9 685.8,1088.1 668.1,1073.2 	"/>
	<polyline class="st14" points="682.1,1091.5 684.8,1088.2 666.9,1073.2 	"/>
	<polyline class="st13" points="759.2,961.6 660.2,1079.6 661.7,1080.9 760.1,963.6 	"/>
	<line class="st15" x1="729.1" y1="999.1" x2="724" y2="1005.1"/>
	<line class="st15" x1="722.8" y1="1006.6" x2="720.2" y2="1009.6"/>
	<line class="st15" x1="718.9" y1="1011.2" x2="713.8" y2="1017.3"/>
	<line class="st15" x1="760.1" y1="963.6" x2="667.2" y2="1074.4"/>
	<line class="st15" x1="759.2" y1="961.6" x2="660.2" y2="1079.6"/>
	<polyline class="st13" points="741.8,1079.6 723.3,1064.1 722.4,1065.2 739.7,1079.8 	"/>
	<polyline class="st14" points="738.6,1083.4 737.5,1082.5 739.7,1079.8 723.2,1065.9 	"/>
	<polyline class="st14" points="738.6,1083.4 741.8,1079.6 724.1,1064.8 	"/>
	<polyline class="st14" points="738,1083 740.8,1079.7 722.8,1064.7 	"/>
	<polyline class="st13" points="807.2,962.7 716.2,1071.1 717.7,1072.3 809.8,962.7 	"/>
	<line class="st15" x1="777.9" y1="999.1" x2="772.8" y2="1005.1"/>
	<line class="st15" x1="771.5" y1="1006.6" x2="769" y2="1009.6"/>
	<line class="st15" x1="767.7" y1="1011.2" x2="762.7" y2="1017.3"/>
	<line class="st15" x1="808.9" y1="963.6" x2="723.2" y2="1065.9"/>
	<line class="st15" x1="806.3" y1="963.6" x2="716.2" y2="1071.1"/>
	<polyline class="st13" points="848.2,961.6 759.2,961.6 760.1,963.6 848.2,963.6 	"/>
	<line class="st15" x1="832.4" y1="962.7" x2="824.5" y2="962.7"/>
	<line class="st15" x1="822.5" y1="962.7" x2="818.5" y2="962.7"/>
	<line class="st15" x1="848.2" y1="963.6" x2="808.9" y2="963.6"/>
	<line class="st15" x1="848.2" y1="961.6" x2="759.2" y2="961.6"/>
	<polyline class="st13" points="843.2,988.9 839.7,988.9 838.3,990.3 843.2,990.3 	"/>
	<line class="st14" x1="839.7" y1="962.7" x2="838.3" y2="962.7"/>
	<polyline class="st13" points="682.6,1091.9 685.8,1088.1 683.8,1088.3 681.5,1091 	"/>
	<line class="st15" x1="759.7" y1="962.7" x2="754.6" y2="968.7"/>
	<line class="st15" x1="753.3" y1="970.2" x2="750.7" y2="973.3"/>
	<line class="st15" x1="749.5" y1="974.8" x2="744.4" y2="980.8"/>
	<line class="st15" x1="743.1" y1="982.3" x2="740.6" y2="985.4"/>
	<line class="st15" x1="739.3" y1="986.9" x2="734.2" y2="993"/>
	<line class="st15" x1="732.9" y1="994.5" x2="730.4" y2="997.5"/>
	<line class="st15" x1="712.6" y1="1018.8" x2="710" y2="1021.8"/>
	<line class="st15" x1="708.7" y1="1023.3" x2="703.6" y2="1029.4"/>
	<line class="st15" x1="702.4" y1="1030.9" x2="699.8" y2="1033.9"/>
	<line class="st15" x1="698.6" y1="1035.4" x2="693.5" y2="1041.5"/>
	<line class="st15" x1="692.2" y1="1043.1" x2="689.6" y2="1046.1"/>
	<line class="st15" x1="688.4" y1="1047.6" x2="683.3" y2="1053.7"/>
	<line class="st15" x1="682" y1="1055.2" x2="679.4" y2="1058.2"/>
	<line class="st15" x1="678.2" y1="1059.8" x2="673.1" y2="1065.8"/>
	<line class="st15" x1="671.8" y1="1067.3" x2="669.3" y2="1070.4"/>
	<line class="st15" x1="668" y1="1071.9" x2="662.9" y2="1077.9"/>
	<line class="st15" x1="667.2" y1="1074.4" x2="661.7" y2="1080.9"/>
	<polyline class="st13" points="738.6,1083.4 741.8,1079.6 739.7,1079.8 737.5,1082.5 	"/>
	<line class="st15" x1="808.4" y1="962.7" x2="803.3" y2="968.7"/>
	<line class="st15" x1="802.1" y1="970.2" x2="799.6" y2="973.3"/>
	<line class="st15" x1="798.3" y1="974.8" x2="793.2" y2="980.8"/>
	<line class="st15" x1="791.9" y1="982.3" x2="789.4" y2="985.4"/>
	<line class="st15" x1="788.1" y1="986.9" x2="783" y2="993"/>
	<line class="st15" x1="781.7" y1="994.5" x2="779.2" y2="997.5"/>
	<line class="st15" x1="761.3" y1="1018.8" x2="758.8" y2="1021.8"/>
	<line class="st15" x1="757.6" y1="1023.3" x2="752.5" y2="1029.4"/>
	<line class="st15" x1="751.2" y1="1030.9" x2="748.6" y2="1033.9"/>
	<line class="st15" x1="747.4" y1="1035.4" x2="742.3" y2="1041.5"/>
	<line class="st15" x1="741" y1="1043.1" x2="738.5" y2="1046.1"/>
	<line class="st15" x1="737.2" y1="1047.6" x2="732.1" y2="1053.7"/>
	<line class="st15" x1="730.8" y1="1055.2" x2="728.3" y2="1058.2"/>
	<line class="st15" x1="727" y1="1059.8" x2="721.9" y2="1065.8"/>
	<line class="st15" x1="720.7" y1="1067.3" x2="718.1" y2="1070.4"/>
	<line class="st15" x1="723.2" y1="1065.9" x2="717.7" y2="1072.3"/>
	<line class="st15" x1="848.2" y1="962.7" x2="840.3" y2="962.7"/>
	<line class="st15" x1="838.3" y1="962.7" x2="834.4" y2="962.7"/>
	<line class="st15" x1="816.5" y1="962.7" x2="808.6" y2="962.7"/>
	<line class="st15" x1="806.6" y1="962.7" x2="802.7" y2="962.7"/>
	<line class="st15" x1="800.7" y1="962.7" x2="792.8" y2="962.7"/>
	<line class="st15" x1="790.8" y1="962.7" x2="786.8" y2="962.7"/>
	<line class="st15" x1="784.9" y1="962.7" x2="776.9" y2="962.7"/>
	<line class="st15" x1="775" y1="962.7" x2="771" y2="962.7"/>
	<line class="st15" x1="769" y1="962.7" x2="761.1" y2="962.7"/>
	<line class="st15" x1="806.3" y1="963.6" x2="760.1" y2="963.6"/>
</g>
<g id="SeasideInFeeder1">
	<line class="st16" x1="999.4" y1="979.6" x2="999.4" y2="1023.4"/>
	<line class="st16" x1="1104.6" y1="1014.2" x2="1104.6" y2="1022.1"/>
	<polyline class="st17" points="1011.6,979.6 986.5,979.6 972.2,962.7 	"/>
	<rect x="861.7" y="961.6" class="st18" width="149.9" height="2"/>
	<line class="st17" x1="861.7" y1="961.6" x2="861.7" y2="963.6"/>
	<polyline class="st17" points="1011.6,961.6 1011.6,963.6 861.7,963.6 	"/>
	<line class="st17" x1="1011.6" y1="961.6" x2="861.7" y2="961.6"/>
	<polyline class="st17" points="1011.6,944.7 972.1,944.7 957.5,962 	"/>
	<polyline class="st17" points="1011.6,945.6 972.5,945.6 958.3,962.7 	"/>
	<polyline class="st16" points="935.1,1016.7 932.4,1013.4 953,996.1 	"/>
	<line class="st17" x1="959.2" y1="1003.5" x2="924.9" y2="962.7"/>
	<line class="st17" x1="907.3" y1="956.5" x2="902.7" y2="962"/>
	<line class="st17" x1="913.9" y1="956.5" x2="918.5" y2="962"/>
	<polyline class="st19" points="857.4,990.3 862.4,990.3 860.9,988.9 857.4,988.9 	"/>
	<polyline class="st19" points="862.4,990.3 862.4,962.7 860.9,962.7 860.9,988.9 	"/>
	<line class="st16" x1="862.4" y1="962.7" x2="860.9" y2="962.7"/>
	<polyline class="st16" points="857.4,990.3 857.4,988.9 860.9,988.9 860.9,962.7 	"/>
	<polyline class="st16" points="857.4,990.3 862.4,990.3 862.4,962.7 	"/>
	<polyline class="st16" points="857.4,989.6 861.7,989.6 861.7,962.7 	"/>
	<rect x="852.5" y="961.6" class="st18" width="9.2" height="2"/>
	<line class="st17" x1="861.7" y1="962.7" x2="853.7" y2="962.7"/>
	<polyline class="st17" points="861.7,961.6 861.7,963.6 852.5,963.6 	"/>
	<line class="st17" x1="861.7" y1="961.6" x2="852.5" y2="961.6"/>
	<polyline class="st16" points="891.8,918.7 896,918.7 896,940.6 	"/>
	<line class="st16" x1="896" y1="950.7" x2="896" y2="962.7"/>
	<rect x="1034.2" y="1014.2" class="st18" width="1.4" height="8.5"/>
	<line class="st16" x1="1034.9" y1="1014.2" x2="1034.9" y2="1022.1"/>
	<line class="st16" x1="1034.2" y1="1022.7" x2="1035.6" y2="1022.7"/>
	<line class="st16" x1="1035.6" y1="1014.2" x2="1035.6" y2="1022.7"/>
	<line class="st16" x1="1034.2" y1="1014.2" x2="1034.2" y2="1022.7"/>
	<rect x="1069.1" y="1014.2" class="st18" width="1.4" height="8.5"/>
	<line class="st16" x1="1069.7" y1="1014.2" x2="1069.7" y2="1022.1"/>
	<line class="st16" x1="1069.1" y1="1022.7" x2="1070.5" y2="1022.7"/>
	<line class="st16" x1="1070.5" y1="1014.2" x2="1070.5" y2="1022.7"/>
	<line class="st16" x1="1069.1" y1="1014.2" x2="1069.1" y2="1022.7"/>
	<polyline class="st19" points="999.4,979.6 999.4,1023.4 1000.8,1022 1000.8,979.6 	"/>
	<line class="st16" x1="1000.1" y1="1011.3" x2="1000.1" y2="1019.2"/>
	<line class="st16" x1="1000.1" y1="1021.2" x2="1000.1" y2="1022.7"/>
	<line class="st16" x1="1000.8" y1="979.6" x2="1000.8" y2="1022"/>
	<polyline class="st19" points="999.4,1023.4 1105.3,1023.4 1105.3,1022 1000.8,1022 	"/>
	<line class="st16" x1="1000.1" y1="1022.7" x2="1008" y2="1022.7"/>
	<line class="st16" x1="1010" y1="1022.7" x2="1013.9" y2="1022.7"/>
	<line class="st16" x1="1015.9" y1="1022.7" x2="1023.8" y2="1022.7"/>
	<line class="st16" x1="1025.8" y1="1022.7" x2="1029.8" y2="1022.7"/>
	<line class="st16" x1="1031.8" y1="1022.7" x2="1039.7" y2="1022.7"/>
	<line class="st16" x1="1041.7" y1="1022.7" x2="1045.6" y2="1022.7"/>
	<line class="st16" x1="1047.6" y1="1022.7" x2="1055.5" y2="1022.7"/>
	<line class="st16" x1="1057.5" y1="1022.7" x2="1061.5" y2="1022.7"/>
	<line class="st16" x1="1063.4" y1="1022.7" x2="1071.4" y2="1022.7"/>
	<line class="st16" x1="1073.3" y1="1022.7" x2="1077.3" y2="1022.7"/>
	<line class="st16" x1="1079.3" y1="1022.7" x2="1087.2" y2="1022.7"/>
	<line class="st16" x1="1089.2" y1="1022.7" x2="1093.1" y2="1022.7"/>
	<line class="st16" x1="1095.1" y1="1022.7" x2="1103" y2="1022.7"/>
	<line class="st16" x1="1000.8" y1="1022" x2="1103.9" y2="1022"/>
	<line class="st16" x1="999.4" y1="1023.4" x2="1105.3" y2="1023.4"/>
	<rect x="1103.9" y="1014.2" class="st18" width="1.4" height="9.2"/>
	<line class="st16" x1="1105.3" y1="1014.2" x2="1105.3" y2="1023.4"/>
	<line class="st16" x1="1103.9" y1="1014.2" x2="1103.9" y2="1022"/>
	<polyline class="st19" points="1011.6,978.7 987,978.7 986,980.7 1011.6,980.7 	"/>
	<polyline class="st19" points="987,978.7 973,962 971.5,963.3 986,980.7 	"/>
	<polyline class="st17" points="1011.6,978.7 1011.6,980.7 986,980.7 971.5,963.3 	"/>
	<polyline class="st17" points="1011.6,978.7 987,978.7 973,962 	"/>
	<line class="st17" x1="1011.6" y1="962.7" x2="861.7" y2="962.7"/>
	<polyline class="st19" points="1011.6,944.7 972.1,944.7 973,946.6 1011.6,946.6 	"/>
	<polyline class="st17" points="1011.6,944.7 1011.6,946.6 973,946.6 959,963.3 	"/>
	<polyline class="st19" points="933.4,1013.5 953.5,996.7 952.6,995.6 931.4,1013.4 	"/>
	<polyline class="st16" points="935.6,1016.2 934.6,1017.1 931.4,1013.4 952.6,995.6 	"/>
	<polyline class="st16" points="935.6,1016.2 933.4,1013.5 953.5,996.7 	"/>
	<polyline class="st19" points="959.9,1002.9 925.7,962 924.2,963.3 958.4,1004.1 	"/>
	<polyline class="st17" points="959.9,1002.9 958.4,1004.1 924.2,963.3 	"/>
	<line class="st17" x1="959.9" y1="1002.9" x2="925.7" y2="962"/>
	<polyline class="st19" points="908.1,955.6 902.7,962 904.2,963.3 910.7,955.6 	"/>
	<line class="st17" x1="909.4" y1="955.6" x2="904.3" y2="961.6"/>
	<line class="st17" x1="909.9" y1="956.5" x2="904.2" y2="963.3"/>
	<polyline class="st19" points="910.5,955.6 917,963.3 918.5,962 913.1,955.6 	"/>
	<line class="st17" x1="911.8" y1="955.6" x2="916.9" y2="961.6"/>
	<line class="st17" x1="911.3" y1="956.5" x2="917" y2="963.3"/>
	<line class="st0" x1="900.4" y1="965.4" x2="900.4" y2="957.5"/>
	<polyline class="st19" points="895.3,919.4 895.3,940.6 896.8,940.6 896.8,918 	"/>
	<polyline class="st16" points="891.8,919.4 891.8,918 896.8,918 896.8,940.6 	"/>
	<polyline class="st16" points="891.8,919.4 895.3,919.4 895.3,940.6 	"/>
	<rect x="895.3" y="950.7" class="st18" width="1.4" height="12"/>
	<line class="st16" x1="896.8" y1="950.7" x2="896.8" y2="962.7"/>
	<line class="st16" x1="895.3" y1="950.7" x2="895.3" y2="962.7"/>
	<line class="st16" x1="1000.1" y1="979.6" x2="1000.1" y2="987.6"/>
	<line class="st16" x1="1000.1" y1="989.5" x2="1000.1" y2="993.5"/>
	<line class="st16" x1="1000.1" y1="995.5" x2="1000.1" y2="1003.4"/>
	<line class="st16" x1="1000.1" y1="1005.4" x2="1000.1" y2="1009.3"/>
	<line class="st17" x1="973" y1="962" x2="971.5" y2="963.3"/>
	<polyline class="st19" points="972.1,944.7 957.5,962 959,963.3 973,946.6 	"/>
	<line class="st17" x1="957.5" y1="962" x2="959" y2="963.3"/>
	<polyline class="st19" points="935.6,1016.2 933.4,1013.5 931.4,1013.4 934.6,1017.1 	"/>
	<line class="st16" x1="953.5" y1="996.7" x2="952.6" y2="995.6"/>
	<line class="st17" x1="925.7" y1="962" x2="924.2" y2="963.3"/>
	<line class="st17" x1="902.7" y1="962" x2="904.2" y2="963.3"/>
	<line class="st17" x1="917" y1="963.3" x2="918.5" y2="962"/>
	<polyline class="st19" points="891.8,919.4 895.3,919.4 896.8,918 891.8,918 	"/>
	<line class="st16" x1="895.3" y1="962.7" x2="896.8" y2="962.7"/>
</g>
<g id="_1_to_7">
	<polyline class="st20" points="522.5,736 466.1,736 467,738 521.6,738 	"/>
	<polyline class="st21" points="544.3,761.8 542.7,763.1 521.6,738 467,738 445.9,763.1 	"/>
	<polyline class="st21" points="544.3,761.8 522.5,736 466.1,736 444.4,761.8 	"/>
	<polyline class="st21" points="543.5,762.4 522.1,736.9 466.5,736.9 445.1,762.4 	"/>
	<rect x="459.4" y="744.4" class="st22" width="69.8" height="2"/>
	<polyline class="st21" points="529.2,744.4 529.2,746.4 459.4,746.4 	"/>
	<line class="st21" x1="529.2" y1="744.4" x2="459.4" y2="744.4"/>
	<line class="st21" x1="529.2" y1="745.5" x2="459.4" y2="745.5"/>
	<polyline class="st20" points="536.3,753 466.4,753 467.3,754.9 536.3,754.9 	"/>
	<polyline class="st21" points="536.3,753 536.3,754.9 467.3,754.9 460.5,763.1 	"/>
	<polyline class="st21" points="536.3,753 466.4,753 459,761.8 	"/>
	<polyline class="st21" points="536.3,754 466.9,754 459.8,762.4 	"/>
	<polyline class="st20" points="589.4,784.1 583.6,777.2 582.1,778.5 587.9,785.4 	"/>
	<line class="st21" x1="588.7" y1="784.7" x2="583.6" y2="778.6"/>
	<polyline class="st21" points="589.4,784.1 587.9,785.4 582.1,778.5 	"/>
	<line class="st21" x1="589.4" y1="784.1" x2="583.6" y2="777.2"/>
	<polyline class="st20" points="527.7,710.5 467,710.5 467.9,712.5 526.7,712.5 	"/>
	<polyline class="st21" points="526.7,712.5 467.9,712.5 453.9,729.1 	"/>
	<polyline class="st21" points="527.7,710.5 467,710.5 452.4,727.8 	"/>
	<polyline class="st21" points="527.2,711.4 467.4,711.4 453.1,728.5 	"/>
	<polyline class="st20" points="533.5,718.9 473.5,718.9 474.4,720.9 535.1,720.9 	"/>
	<polyline class="st21" points="533.9,720.9 474.4,720.9 467.6,729.1 	"/>
	<polyline class="st21" points="532.2,718.9 473.5,718.9 466,727.8 	"/>
	<polyline class="st21" points="534.4,720 473.9,720 466.8,728.4 	"/>
	<polyline class="st20" points="540.7,727.5 440.5,727.5 441.4,729.4 542.3,729.4 	"/>
	<line class="st21" x1="541" y1="729.4" x2="441.4" y2="729.4"/>
	<line class="st21" x1="539.3" y1="727.5" x2="440.5" y2="727.5"/>
	<line class="st21" x1="541.4" y1="728.4" x2="440.9" y2="728.4"/>
	<polyline class="st20" points="620.7,745 599,763.1 599.9,764.2 620.5,747 	"/>
	<polyline class="st21" points="623.9,748.8 622.8,749.7 620.5,747 600.7,763.6 	"/>
	<polyline class="st21" points="623.9,748.8 620.7,745 599.8,762.5 	"/>
	<polyline class="st21" points="623.3,749.2 620.6,746 599.5,763.6 	"/>
	<polyline class="st20" points="606.1,769.9 549,702 548.1,703.9 604.6,771.2 	"/>
	<polyline class="st21" points="606.1,769.9 604.6,771.2 548.1,703.9 	"/>
	<line class="st21" x1="606.1" y1="769.9" x2="549" y2="702"/>
	<line class="st21" x1="605.3" y1="770.5" x2="548.6" y2="702.9"/>
	<polyline class="st20" points="415,792.1 398.7,778.6 397.8,779.7 413,792.3 	"/>
	<polyline class="st21" points="411.8,795.9 410.7,795 413,792.3 398.6,780.3 	"/>
	<polyline class="st21" points="411.8,795.9 415,792.1 399.5,779.2 	"/>
	<polyline class="st21" points="411.2,795.4 414,792.2 398.3,779.1 	"/>
	<polyline class="st20" points="440.5,727.5 391.8,785.4 393.3,786.7 441.4,729.4 	"/>
	<line class="st21" x1="441.4" y1="729.4" x2="393.3" y2="786.7"/>
	<line class="st21" x1="440.5" y1="727.5" x2="391.8" y2="785.4"/>
	<line class="st21" x1="440.9" y1="728.4" x2="392.5" y2="786.1"/>
	<rect x="382.6" y="770.2" class="st22" width="22.4" height="2"/>
	<polyline class="st21" points="404.9,770.2 404.9,772.2 382.6,772.2 	"/>
	<line class="st21" x1="404.9" y1="770.2" x2="382.6" y2="770.2"/>
	<line class="st21" x1="404.9" y1="771.2" x2="382.6" y2="771.2"/>
	<polyline class="st20" points="412.2,763.5 570.8,763.5 569.2,761.5 412.2,761.5 	"/>
	<polyline class="st21" points="412.2,763.5 412.2,761.5 567.9,761.5 	"/>
	<line class="st21" x1="412.2" y1="763.5" x2="569.5" y2="763.5"/>
	<line class="st21" x1="412.2" y1="762.4" x2="570" y2="762.4"/>
	<polyline class="st20" points="250.1,927.6 211,927.6 211,929.6 251,929.6 	"/>
	<line class="st21" x1="251" y1="929.6" x2="211" y2="929.6"/>
	<line class="st21" x1="250.1" y1="927.6" x2="211" y2="927.6"/>
	<line class="st21" x1="250.6" y1="928.6" x2="211" y2="928.6"/>
	<path class="st20" d="M574.7,768.2c-0.4,0.4-0.7,0.8-0.7,1.4c-0.1,0.6,0.1,1.1,0.5,1.6c0.3,0.4,0.8,0.7,1.4,0.7s1.1-0.1,1.6-0.5
		s0.7-0.8,0.7-1.4c0.1-0.6-0.1-1.1-0.5-1.6s-0.8-0.7-1.4-0.7C575.7,767.7,575.2,767.8,574.7,768.2"/>
	<path class="st20" d="M591.4,754.2c-0.4,0.4-0.7,0.8-0.7,1.4c-0.1,0.5,0.1,1.1,0.5,1.5s0.9,0.7,1.4,0.7c0.5,0.1,1.1-0.1,1.5-0.5
		s0.7-0.8,0.8-1.4c0-0.5-0.1-1.1-0.5-1.6s-0.9-0.7-1.4-0.7C592.4,753.6,591.9,753.8,591.4,754.2"/>
	<line class="st21" x1="576.1" y1="769.8" x2="592.8" y2="755.8"/>
	<line class="st21" x1="567.9" y1="761.5" x2="541" y2="729.4"/>
	<line class="st21" x1="582.9" y1="777.8" x2="520.1" y2="702.9"/>
	<polyline class="st20" points="549,702 439.5,702 440.4,703.9 548.1,703.9 	"/>
	<polyline class="st21" points="519.6,703.9 440.4,703.9 251,929.6 	"/>
	<polyline class="st21" points="549,702 439.5,702 250.1,927.6 	"/>
	<polyline class="st21" points="548.6,702.9 439.9,702.9 250.6,928.6 	"/>
	<polyline class="st20" points="544.3,761.8 522.5,736 521.6,738 542.7,763.1 	"/>
	<polyline class="st20" points="466.1,736 444.4,761.8 445.9,763.1 467,738 	"/>
	<line class="st21" x1="459.4" y1="744.4" x2="459.4" y2="746.4"/>
	<polyline class="st20" points="466.4,753 459,761.8 460.5,763.1 467.3,754.9 	"/>
	<line class="st21" x1="459" y1="761.8" x2="460.5" y2="763.1"/>
	<polyline class="st20" points="467,710.5 452.4,727.8 453.9,729.1 467.9,712.5 	"/>
	<line class="st21" x1="452.4" y1="727.8" x2="453.9" y2="729.1"/>
	<polyline class="st20" points="473.5,718.9 466,727.8 467.6,729.1 474.4,720.9 	"/>
	<line class="st21" x1="466" y1="727.8" x2="467.6" y2="729.1"/>
	<line class="st21" x1="211" y1="927.6" x2="211" y2="929.6"/>
	<line class="st21" x1="211" y1="932.2" x2="211" y2="925.1"/>
	<polyline class="st20" points="583.7,777.2 521.3,702.9 518.8,702.9 582.1,778.5 	"/>
	<line class="st21" x1="532.2" y1="718.9" x2="519.6" y2="703.9"/>
	<line class="st21" x1="539.3" y1="727.5" x2="533.9" y2="720.9"/>
	<line class="st21" x1="583.7" y1="777.2" x2="522.2" y2="703.9"/>
	<polyline class="st20" points="439.5,702 250.1,927.6 251,929.6 440.4,703.9 	"/>
	<line class="st21" x1="548.1" y1="703.9" x2="522.2" y2="703.9"/>
	<line class="st21" x1="444.4" y1="761.8" x2="445.9" y2="763.1"/>
	<line class="st21" x1="583.6" y1="777.2" x2="582.1" y2="778.5"/>
	<polyline class="st20" points="623.9,748.8 620.7,745 620.5,747 622.8,749.7 	"/>
	<polyline class="st20" points="411.8,795.9 415,792.1 413,792.3 410.7,795 	"/>
	<line class="st21" x1="382.6" y1="770.2" x2="382.6" y2="772.2"/>
	<line class="st21" x1="583.7" y1="777.2" x2="582.1" y2="778.5"/>
	<line class="st21" x1="582.1" y1="778.5" x2="569.5" y2="763.5"/>
</g>
<g id="_8_to_15">
	<polyline class="st9" points="487.2,840 580.1,840 578.5,838 488.2,838 	"/>
	<polyline class="st10" points="482.7,831.5 488.2,838 577.2,838 	"/>
	<polyline class="st10" points="480.1,831.5 487.2,840 578.9,840 	"/>
	<polyline class="st10" points="480.5,830.5 487.7,839 579.3,839 	"/>
	<polyline class="st9" points="487.5,814.5 558.8,814.5 557.1,812.5 486.6,812.5 	"/>
	<polyline class="st10" points="479.5,821 486.6,812.5 555.8,812.5 	"/>
	<polyline class="st10" points="482,821 487.5,814.5 557.5,814.5 	"/>
	<polyline class="st10" points="479.9,822 487,813.5 557.9,813.5 	"/>
	<polyline class="st9" points="481.8,805.9 565.5,805.9 565.5,804 482.7,804 	"/>
	<polyline class="st10" points="477.2,797.5 482.7,804 565.5,804 	"/>
	<polyline class="st10" points="474.7,797.5 481.8,805.9 565.5,805.9 	"/>
	<polyline class="st10" points="475.1,796.5 482.2,805 565.5,805 	"/>
	<polyline class="st9" points="529.9,778.5 488.7,778.5 489.6,780.4 528.9,780.4 	"/>
	<polyline class="st10" points="534.4,787 528.9,780.4 489.6,780.4 484.1,787 	"/>
	<polyline class="st10" points="596.2,857.5 529.9,778.5 488.7,778.5 481.6,787 	"/>
	<polyline class="st10" points="595.4,858.2 529.4,779.5 489.1,779.5 482,787.9 	"/>
	<polyline class="st9" points="472.8,789 537.4,789 535.7,787 471.9,787 	"/>
	<line class="st10" x1="484.1" y1="787" x2="534.4" y2="787"/>
	<polyline class="st10" points="467.3,795.5 472.8,789 536,789 	"/>
	<polyline class="st10" points="465.2,796.5 472.3,787.9 536.5,787.9 	"/>
	<polyline class="st9" points="437.2,822 457.8,797.5 456.8,795.5 434.6,822 	"/>
	<polyline class="st9" points="457.8,797.5 544.5,797.5 542.8,795.5 456.8,795.5 	"/>
	<line class="st10" x1="467.3" y1="795.5" x2="541.5" y2="795.5"/>
	<polyline class="st10" points="435.4,821 456.8,795.5 464.8,795.5 	"/>
	<line class="st10" x1="477.2" y1="797.5" x2="543.2" y2="797.5"/>
	<polyline class="st10" points="438.1,821 457.8,797.5 474.7,797.5 	"/>
	<polyline class="st9" points="465.8,831.5 573,831.5 571.4,829.5 466.7,829.5 	"/>
	<polyline class="st10" points="461.3,823 466.7,829.5 570.1,829.5 	"/>
	<line class="st10" x1="482.7" y1="831.5" x2="571.7" y2="831.5"/>
	<polyline class="st10" points="459.1,822 466.3,830.5 572.2,830.5 	"/>
	<polyline class="st9" points="423.4,823 565.9,823 564.2,821 423.4,821 	"/>
	<line class="st10" x1="482" y1="821" x2="562.9" y2="821"/>
	<line class="st10" x1="461.3" y1="823" x2="564.6" y2="823"/>
	<line class="st10" x1="423.4" y1="822" x2="565.1" y2="822"/>
	<polyline class="st10" points="536,789 472.8,789 467.3,795.5 	"/>
	<line class="st10" x1="534.4" y1="787" x2="484.1" y2="787"/>
	<line class="st10" x1="543.2" y1="797.5" x2="477.2" y2="797.5"/>
	<line class="st10" x1="541.6" y1="795.5" x2="467.3" y2="795.5"/>
	<polyline class="st9" points="555.6,783 555.6,805 557,805 557,784.3 	"/>
	<polyline class="st12" points="560.6,783 560.6,784.3 557,784.3 557,805 	"/>
	<polyline class="st12" points="560.6,783 555.6,783 555.6,805 	"/>
	<polyline class="st12" points="560.6,783.7 556.3,783.7 556.3,805 	"/>
	<polyline class="st9" points="433.3,849.6 433.3,822 431.9,822 431.9,848.2 	"/>
	<polyline class="st12" points="428.3,849.6 428.3,848.2 431.9,848.2 431.9,822 	"/>
	<polyline class="st12" points="428.3,849.6 433.3,849.6 433.3,822 	"/>
	<polyline class="st12" points="428.3,848.9 432.6,848.9 432.6,822 	"/>
	<polyline class="st9" points="479.3,830.5 487.2,840 488.2,838 481.9,830.5 	"/>
	<polyline class="st9" points="481.2,822 487.5,814.5 486.6,812.5 478.6,822 	"/>
	<polyline class="st9" points="473.8,796.5 481.8,805.9 482.7,804 476.4,796.5 	"/>
	<polyline class="st9" points="596.2,857.5 529.9,778.5 528.9,780.4 594.7,858.9 	"/>
	<polyline class="st9" points="488.7,778.5 480.7,787.9 483.3,787.9 489.6,780.4 	"/>
	<line class="st10" x1="577.2" y1="838" x2="571.7" y2="831.5"/>
	<line class="st10" x1="594.7" y1="858.9" x2="578.9" y2="840"/>
	<polyline class="st9" points="466.5,796.5 472.8,789 471.9,787 463.9,796.5 	"/>
	<polyline class="st10" points="464.8,795.5 471.9,787 481.6,787 	"/>
	<polyline class="st10" points="435.9,822 457.3,796.5 543.7,796.5 	"/>
	<polyline class="st9" points="457.9,822 465.8,831.5 466.7,829.5 460.4,822 	"/>
	<polyline class="st10" points="458.7,823 465.8,831.5 480.1,831.5 	"/>
	<line class="st10" x1="438.1" y1="821" x2="479.5" y2="821"/>
	<line class="st10" x1="423.4" y1="821" x2="435.4" y2="821"/>
	<line class="st10" x1="423.4" y1="823" x2="458.7" y2="823"/>
	<polyline class="st9" points="560.6,783 555.6,783 557,784.3 560.6,784.3 	"/>
	<polyline class="st9" points="428.3,849.6 433.3,849.6 431.9,848.2 428.3,848.2 	"/>
	<line class="st12" x1="433.3" y1="822" x2="431.9" y2="822"/>
	<line class="st10" x1="534.4" y1="787" x2="536" y2="789"/>
	<line class="st10" x1="541.5" y1="795.5" x2="536" y2="789"/>
	<line class="st10" x1="555.8" y1="812.5" x2="543.2" y2="797.5"/>
	<line class="st10" x1="562.9" y1="821" x2="557.5" y2="814.5"/>
	<line class="st10" x1="570.1" y1="829.5" x2="564.6" y2="823"/>
	<line class="st12" x1="555.6" y1="805" x2="557" y2="805"/>
</g>
<g id="_16_to_23">
	<polyline class="st13" points="591.4,927.6 478,927.6 477.1,929.6 591.4,929.6 	"/>
	<line class="st15" x1="591.4" y1="929.6" x2="477.1" y2="929.6"/>
	<line class="st15" x1="591.4" y1="927.6" x2="478" y2="927.6"/>
	<line class="st15" x1="591.4" y1="928.6" x2="477.6" y2="928.6"/>
	<rect x="591.4" y="927.6" class="st23" width="9.2" height="2"/>
	<line class="st15" x1="600.6" y1="928.6" x2="592.7" y2="928.6"/>
	<polyline class="st15" points="600.6,927.6 600.6,929.6 591.4,929.6 	"/>
	<line class="st15" x1="600.6" y1="927.6" x2="591.4" y2="927.6"/>
	<polyline class="st13" points="590.7,906.6 590.7,928.6 592.1,928.6 592.1,908 	"/>
	<polyline class="st14" points="595.6,906.6 595.6,908 592.1,908 592.1,928.6 	"/>
	<polyline class="st14" points="595.6,906.6 590.7,906.6 590.7,928.6 	"/>
	<polyline class="st14" points="595.6,907.3 591.4,907.3 591.4,928.6 	"/>
	<polyline class="st13" points="478,927.6 471.2,919.5 469.7,920.8 477.1,929.6 	"/>
	<line class="st15" x1="477.1" y1="929.6" x2="469.7" y2="920.8"/>
	<line class="st15" x1="478" y1="927.6" x2="471.2" y2="919.5"/>
	<line class="st15" x1="477.6" y1="928.6" x2="470.5" y2="920.1"/>
	<rect x="586.6" y="880.5" class="st23" width="12.2" height="2"/>
	<line class="st15" x1="598.8" y1="881.5" x2="590.9" y2="881.5"/>
	<polyline class="st15" points="598.8,880.5 598.8,882.5 586.6,882.5 	"/>
	<line class="st15" x1="598.8" y1="880.5" x2="586.6" y2="880.5"/>
	<rect x="408" y="872" class="st23" width="171.5" height="2"/>
	<polyline class="st15" points="579.5,872 579.5,874 408,874 	"/>
	<line class="st15" x1="579.5" y1="872" x2="408" y2="872"/>
	<line class="st15" x1="579.5" y1="873" x2="408" y2="873"/>
	<rect x="398.8" y="872" class="st23" width="9.2" height="2"/>
	<line class="st15" x1="408" y1="873" x2="400.1" y2="873"/>
	<polyline class="st15" points="408,872 408,874 398.8,874 	"/>
	<line class="st15" x1="408" y1="872" x2="398.8" y2="872"/>
	<polyline class="st13" points="387.8,973.3 387.8,945.6 386.5,945.6 386.5,971.8 	"/>
	<polyline class="st14" points="382.9,973.3 382.9,971.8 386.5,971.8 386.5,945.6 	"/>
	<polyline class="st14" points="382.9,973.3 387.8,973.3 387.8,945.6 	"/>
	<polyline class="st14" points="382.9,972.6 387.1,972.6 387.1,945.6 	"/>
	<rect x="377.9" y="944.7" class="st23" width="9.2" height="2"/>
	<line class="st15" x1="387.1" y1="945.6" x2="379.2" y2="945.6"/>
	<polyline class="st15" points="387.1,944.7 387.1,946.6 377.9,946.6 	"/>
	<line class="st15" x1="387.1" y1="944.7" x2="377.9" y2="944.7"/>
	<polyline class="st13" points="571.5,863.5 461.6,863.5 462.5,865.5 573.2,865.5 	"/>
	<polyline class="st15" points="571.9,865.5 462.5,865.5 455.6,873.6 	"/>
	<polyline class="st15" points="570.2,863.5 461.6,863.5 454.1,872.4 	"/>
	<polyline class="st15" points="572.3,864.5 462,864.5 454.9,873 	"/>
	<polyline class="st13" points="479.5,855 472,863.8 473.6,865.2 480.4,857 	"/>
	<line class="st15" x1="480.4" y1="857" x2="473.6" y2="865.2"/>
	<line class="st15" x1="479.5" y1="855" x2="472" y2="863.8"/>
	<line class="st15" x1="479.9" y1="856" x2="472.8" y2="864.5"/>
	<polyline class="st13" points="585.8,880.5 474.6,880.5 473.7,882.5 587.4,882.5 	"/>
	<polyline class="st15" points="586.1,882.5 473.7,882.5 466.3,873.6 	"/>
	<polyline class="st15" points="584.5,880.5 474.6,880.5 467.8,872.4 	"/>
	<polyline class="st15" points="586.6,881.5 474.1,881.5 467,873 	"/>
	<polyline class="st13" points="565.7,855 479.5,855 480.4,857 564.7,857 	"/>
	<polyline class="st15" points="570.2,863.5 564.7,857 480.4,857 	"/>
	<polyline class="st15" points="587.3,880.9 565.7,855 479.5,855 	"/>
	<polyline class="st15" points="586.6,881.5 565.2,856 479.9,856 	"/>
	<polyline class="st13" points="450.4,921.1 563.8,921.1 564.8,919.2 449.5,919.2 	"/>
	<polyline class="st15" points="429.3,946.3 427.8,945 449.5,919.2 564.8,919.2 	"/>
	<polyline class="st15" points="429.3,946.3 450.4,921.1 563.8,921.1 	"/>
	<polyline class="st15" points="428.5,945.6 449.9,920.1 564.3,920.1 	"/>
	<polyline class="st13" points="563.8,921.1 570.7,929.3 572.2,928 564.8,919.2 	"/>
	<line class="st15" x1="564.8" y1="919.2" x2="572.2" y2="928"/>
	<line class="st15" x1="563.8" y1="921.1" x2="570.7" y2="929.3"/>
	<line class="st15" x1="564.3" y1="920.1" x2="571.4" y2="928.6"/>
	<rect x="591.4" y="944.7" class="st23" width="9.2" height="2"/>
	<line class="st15" x1="600.6" y1="945.6" x2="592.7" y2="945.6"/>
	<polyline class="st15" points="600.6,944.7 600.6,946.6 591.4,946.6 	"/>
	<line class="st15" x1="600.6" y1="944.7" x2="591.4" y2="944.7"/>
	<rect x="591.4" y="961.6" class="st23" width="9.2" height="2"/>
	<line class="st15" x1="600.6" y1="962.7" x2="592.7" y2="962.7"/>
	<polyline class="st15" points="600.6,961.6 600.6,963.6 591.4,963.6 	"/>
	<line class="st15" x1="600.6" y1="961.6" x2="591.4" y2="961.6"/>
	<polyline class="st13" points="591.4,961.6 469.8,961.6 468.8,963.6 591.4,963.6 	"/>
	<polyline class="st15" points="591.4,961.6 591.4,963.6 468.8,963.6 454.3,946.3 	"/>
	<polyline class="st15" points="591.4,961.6 469.8,961.6 455.8,945 	"/>
	<polyline class="st15" points="591.4,962.7 469.3,962.7 455,945.6 	"/>
	<rect x="386.5" y="944.7" class="st23" width="204.9" height="2"/>
	<line class="st15" x1="591.4" y1="946.6" x2="386.5" y2="946.6"/>
	<line class="st15" x1="591.4" y1="944.7" x2="386.5" y2="944.7"/>
	<line class="st15" x1="591.4" y1="945.6" x2="386.5" y2="945.6"/>
	<line class="st15" x1="591.4" y1="927.6" x2="591.4" y2="929.6"/>
	<polyline class="st13" points="595.6,906.6 590.7,906.6 592.1,908 595.6,908 	"/>
	<line class="st14" x1="590.7" y1="928.6" x2="592.1" y2="928.6"/>
	<line class="st15" x1="471.2" y1="919.5" x2="469.7" y2="920.8"/>
	<line class="st15" x1="588.9" y1="881.5" x2="586.6" y2="881.5"/>
	<line class="st15" x1="586.6" y1="880.5" x2="586.6" y2="882.5"/>
	<line class="st15" x1="408" y1="872" x2="408" y2="874"/>
	<polyline class="st13" points="382.9,973.3 387.8,973.3 386.5,971.8 382.9,971.8 	"/>
	<line class="st14" x1="387.8" y1="945.6" x2="386.5" y2="945.6"/>
	<polyline class="st13" points="461.6,863.5 454.1,872.4 455.6,873.6 462.5,865.5 	"/>
	<line class="st15" x1="454.1" y1="872.4" x2="455.6" y2="873.6"/>
	<line class="st15" x1="472" y1="863.8" x2="473.6" y2="865.2"/>
	<polyline class="st13" points="474.6,880.5 467.8,872.4 466.3,873.6 473.7,882.5 	"/>
	<line class="st15" x1="467.8" y1="872.4" x2="466.3" y2="873.6"/>
	<polyline class="st13" points="587.3,880.9 565.7,855 564.7,857 585.8,882.1 	"/>
	<line class="st15" x1="587.3" y1="880.9" x2="585.8" y2="882.1"/>
	<line class="st15" x1="585.8" y1="882.1" x2="585.5" y2="881.8"/>
	<polyline class="st13" points="429.3,946.3 450.4,921.1 449.5,919.2 427.8,945 	"/>
	<line class="st15" x1="570.7" y1="929.3" x2="572.2" y2="928"/>
	<line class="st15" x1="591.4" y1="944.7" x2="591.4" y2="946.6"/>
	<line class="st15" x1="591.4" y1="961.6" x2="591.4" y2="963.6"/>
	<polyline class="st13" points="469.8,961.6 455.8,945 454.3,946.3 468.8,963.6 	"/>
	<line class="st15" x1="386.5" y1="944.7" x2="386.5" y2="946.6"/>
	<path class="st13" d="M415.9,945.6c0,0.6,0.2,1.1,0.6,1.5c0.4,0.4,0.9,0.6,1.5,0.6c0.5,0,1.1-0.2,1.4-0.6c0.4-0.4,0.6-0.9,0.6-1.5
		c0-0.5-0.2-1.1-0.6-1.4c-0.4-0.4-0.9-0.7-1.4-0.7c-0.6,0-1.1,0.2-1.5,0.7C416.1,944.5,415.9,945.1,415.9,945.6"/>
	<path class="st13" d="M415.9,873c0,0.5,0.2,1.1,0.6,1.4c0.4,0.4,0.9,0.7,1.5,0.7c0.5,0,1.1-0.2,1.4-0.7c0.4-0.4,0.6-0.9,0.6-1.4
		c0-0.6-0.2-1.1-0.6-1.5c-0.4-0.4-0.9-0.6-1.4-0.6c-0.6,0-1.1,0.2-1.5,0.6C416.1,872,415.9,872.4,415.9,873"/>
	<line class="st15" x1="418" y1="945.6" x2="418" y2="873"/>
	<line class="st15" x1="584.5" y1="880.5" x2="571.9" y2="865.5"/>
	<line class="st15" x1="455.8" y1="945" x2="454.3" y2="946.3"/>
</g>
<g id="_24_to_31">
	<rect x="591.4" y="978.7" class="st22" width="9.2" height="2"/>
	<line class="st21" x1="600.6" y1="979.6" x2="592.7" y2="979.6"/>
	<polyline class="st21" points="600.6,978.7 600.6,980.7 591.4,980.7 	"/>
	<line class="st21" x1="600.6" y1="978.7" x2="591.4" y2="978.7"/>
	<polyline class="st20" points="591.4,978.7 481.2,978.7 482.1,980.7 591.4,980.7 	"/>
	<polyline class="st21" points="591.4,978.7 591.4,980.7 482.1,980.7 475.3,988.8 	"/>
	<polyline class="st21" points="591.4,978.7 481.2,978.7 473.8,987.5 	"/>
	<polyline class="st21" points="591.4,979.6 481.6,979.6 474.5,988.2 	"/>
	<polyline class="st20" points="555.9,1004.2 483.8,1004.2 482.9,1006.2 556.8,1006.2 	"/>
	<polyline class="st21" points="576.2,980 577.7,981.3 556.8,1006.2 482.9,1006.2 475.4,997.3 	"/>
	<polyline class="st21" points="576.2,980 555.9,1004.2 483.8,1004.2 477,996 	"/>
	<polyline class="st21" points="576.9,980.7 556.3,1005.1 483.4,1005.1 476.2,996.7 	"/>
	<polyline class="st20" points="570.6,987.1 463,987.1 463.9,989.1 570.6,989.1 	"/>
	<polyline class="st21" points="570.6,987.1 570.6,989.1 463.9,989.1 457,997.3 	"/>
	<polyline class="st21" points="570.6,987.1 463,987.1 455.5,996 	"/>
	<polyline class="st21" points="570.6,988.2 463.4,988.2 456.3,996.7 	"/>
	<polyline class="st20" points="645.5,983.6 639.5,990.7 641,991.9 647,984.9 	"/>
	<line class="st21" x1="646.3" y1="984.3" x2="641.2" y2="990.3"/>
	<polyline class="st21" points="645.5,983.6 647,984.9 641,991.9 	"/>
	<line class="st21" x1="645.5" y1="983.6" x2="639.5" y2="990.7"/>
	<polyline class="st20" points="387.8,1049.8 387.8,1022.2 386.5,1022.2 386.5,1048.4 	"/>
	<polyline class="st24" points="382.9,1049.8 382.9,1048.4 386.5,1048.4 386.5,1022.2 	"/>
	<polyline class="st24" points="382.9,1049.8 387.8,1049.8 387.8,1022.2 	"/>
	<polyline class="st24" points="382.9,1049.1 387.1,1049.1 387.1,1022.2 	"/>
	<rect x="377.9" y="1021.2" class="st22" width="9.2" height="2"/>
	<line class="st21" x1="387.1" y1="1022.2" x2="379.2" y2="1022.2"/>
	<polyline class="st21" points="387.1,1021.2 387.1,1023.1 377.9,1023.1 	"/>
	<line class="st21" x1="387.1" y1="1021.2" x2="377.9" y2="1021.2"/>
	<polyline class="st20" points="584.2,1029.7 467.8,1029.7 466.9,1031.7 584.2,1031.7 	"/>
	<polyline class="st21" points="584.2,1029.7 584.2,1031.7 466.9,1031.7 459.5,1022.8 	"/>
	<polyline class="st21" points="584.2,1029.7 467.8,1029.7 461,1021.5 	"/>
	<polyline class="st21" points="584.2,1030.7 467.4,1030.7 460.3,1022.2 	"/>
	<polyline class="st20" points="563.5,995.7 444.7,995.7 445.6,997.6 563.5,997.6 	"/>
	<polyline class="st21" points="563.5,995.7 563.5,997.6 445.6,997.6 425.9,1021.2 	"/>
	<polyline class="st21" points="563.5,995.7 444.7,995.7 423.3,1021.2 	"/>
	<polyline class="st21" points="563.5,996.7 445.2,996.7 423.8,1022.2 	"/>
	<polyline class="st20" points="592.1,1021.2 386.5,1021.2 386.5,1023.1 590.5,1023.1 	"/>
	<line class="st21" x1="589.1" y1="1023.1" x2="386.5" y2="1023.1"/>
	<line class="st21" x1="590.8" y1="1021.2" x2="425.9" y2="1021.2"/>
	<line class="st21" x1="591.3" y1="1022.2" x2="386.5" y2="1022.2"/>
	<polyline class="st20" points="576.5,1038.2 486.1,1038.2 485.2,1040.2 577.5,1040.2 	"/>
	<polyline class="st21" points="597.7,1013 599.2,1014.3 577.5,1040.2 485.2,1040.2 477.7,1031.3 	"/>
	<polyline class="st21" points="589.1,1023.1 576.5,1038.2 486.1,1038.2 479.2,1030 	"/>
	<polyline class="st21" points="598.4,1013.7 577,1039.2 485.6,1039.2 478.5,1030.7 	"/>
	<polyline class="st20" points="658.1,1005.3 640.8,990.7 639.8,991.8 658.3,1007.3 	"/>
	<polyline class="st24" points="660.4,1002.6 661.5,1003.5 658.3,1007.3 640.6,992.5 	"/>
	<polyline class="st24" points="660.4,1002.6 658.1,1005.3 641.5,991.4 	"/>
	<polyline class="st24" points="661,1003 658.2,1006.3 640.3,991.3 	"/>
	<polyline class="st20" points="621.1,1012.7 484.1,1012.7 485,1014.7 622,1014.7 	"/>
	<polyline class="st21" points="639.7,993.6 622,1014.7 485,1014.7 478.2,1022.8 	"/>
	<polyline class="st21" points="639.1,991.2 621.1,1012.7 484.1,1012.7 476.7,1021.5 	"/>
	<polyline class="st21" points="639.8,991.8 621.5,1013.7 484.6,1013.7 477.4,1022.2 	"/>
	<polyline class="st20" points="481.2,978.7 473.8,987.5 475.3,988.8 482.1,980.7 	"/>
	<line class="st21" x1="473.8" y1="987.5" x2="475.3" y2="988.8"/>
	<polyline class="st20" points="576.2,980 555.9,1004.2 556.8,1006.2 577.7,981.3 	"/>
	<polyline class="st20" points="483.8,1004.2 477,996 475.4,997.3 482.9,1006.2 	"/>
	<line class="st21" x1="477" y1="996" x2="475.4" y2="997.3"/>
	<polyline class="st20" points="463,987.1 455.5,996 457,997.3 463.9,989.1 	"/>
	<line class="st21" x1="455.5" y1="996" x2="457" y2="997.3"/>
	<polyline class="st20" points="382.9,1049.8 387.8,1049.8 386.5,1048.4 382.9,1048.4 	"/>
	<polyline class="st20" points="467.8,1029.7 461,1021.5 459.5,1022.8 466.9,1031.7 	"/>
	<line class="st21" x1="461" y1="1021.5" x2="459.5" y2="1022.8"/>
	<polyline class="st20" points="444.7,995.7 422.5,1022.2 425,1022.2 445.6,997.6 	"/>
	<line class="st21" x1="423.3" y1="1021.2" x2="386.5" y2="1021.2"/>
	<polyline class="st20" points="597.7,1013 576.5,1038.2 577.5,1040.2 599.2,1014.3 	"/>
	<polyline class="st20" points="486.1,1038.2 479.2,1030 477.7,1031.3 485.2,1040.2 	"/>
	<line class="st21" x1="479.2" y1="1030" x2="477.7" y2="1031.3"/>
	<line class="st21" x1="597.7" y1="1013" x2="590.8" y2="1021.2"/>
	<polyline class="st20" points="639.1,991.2 621.1,1012.7 622,1014.7 640.6,992.5 	"/>
	<polyline class="st20" points="484.1,1012.7 476.7,1021.5 478.2,1022.8 485,1014.7 	"/>
	<line class="st21" x1="476.7" y1="1021.5" x2="478.2" y2="1022.8"/>
	<line class="st21" x1="639.5" y1="990.7" x2="641" y2="991.9"/>
	<line class="st24" x1="387.8" y1="1022.2" x2="386.5" y2="1022.2"/>
	<line class="st21" x1="386.5" y1="1021.2" x2="386.5" y2="1023.1"/>
	<polyline class="st20" points="660.4,1002.6 658.1,1005.3 658.3,1007.3 661.5,1003.5 	"/>
	<line class="st21" x1="639.1" y1="991.2" x2="640.6" y2="992.5"/>
	<line class="st21" x1="640.6" y1="992.5" x2="640.6" y2="992.5"/>
	<line class="st21" x1="591.4" y1="978.7" x2="591.4" y2="980.7"/>
</g>
<g id="_32_to_39">
	<polyline class="st9" points="653.1,1031.7 647.2,1038.7 648.7,1040 654.6,1032.9 	"/>
	<line class="st10" x1="653.8" y1="1032.3" x2="648.7" y2="1038.4"/>
	<polyline class="st10" points="653.1,1031.7 654.6,1032.9 648.7,1040 	"/>
	<line class="st10" x1="653.1" y1="1031.7" x2="647.2" y2="1038.7"/>
	<polyline class="st9" points="632.5,1055.2 475.6,1055.2 476.5,1057.2 632.5,1057.2 	"/>
	<polyline class="st10" points="632.5,1055.2 632.5,1057.2 476.5,1057.2 469.7,1065.3 	"/>
	<polyline class="st10" points="632.5,1055.2 475.6,1055.2 468.2,1064.1 	"/>
	<polyline class="st10" points="632.5,1056.2 476.1,1056.2 469,1064.7 	"/>
	<polyline class="st9" points="475.3,1082.7 576.1,1082.7 575.1,1080.7 476.3,1080.7 	"/>
	<polyline class="st10" points="467.9,1073.8 469.4,1072.6 476.3,1080.7 575.1,1080.7 	"/>
	<polyline class="st10" points="467.9,1073.8 475.3,1082.7 576.1,1082.7 	"/>
	<polyline class="st10" points="468.7,1073.2 475.8,1081.7 575.6,1081.7 	"/>
	<polyline class="st9" points="351.1,1065.7 589,1065.7 590.7,1063.7 352.1,1063.7 	"/>
	<line class="st10" x1="352.1" y1="1063.7" x2="589.4" y2="1063.7"/>
	<line class="st10" x1="351.1" y1="1065.7" x2="587.7" y2="1065.7"/>
	<line class="st10" x1="351.6" y1="1064.7" x2="589.9" y2="1064.7"/>
	<polyline class="st9" points="457.1,1074.2 581.9,1074.2 583.6,1072.2 458,1072.2 	"/>
	<polyline class="st10" points="449.7,1065.3 451.2,1064.1 458,1072.2 582.2,1072.2 	"/>
	<polyline class="st10" points="449.7,1065.3 457.1,1074.2 580.6,1074.2 	"/>
	<polyline class="st10" points="450.4,1064.7 457.6,1073.2 582.7,1073.2 	"/>
	<polyline class="st9" points="576.1,1082.7 597.7,1056.8 596.2,1055.5 575.1,1080.7 	"/>
	<line class="st10" x1="589.4" y1="1063.7" x2="596.2" y2="1055.5"/>
	<line class="st10" x1="576.1" y1="1082.7" x2="597.7" y2="1056.8"/>
	<line class="st10" x1="575.6" y1="1081.7" x2="597" y2="1056.2"/>
	<polyline class="st9" points="444.2,1091.2 605.3,1091.2 605.3,1089.2 445.1,1089.2 	"/>
	<polyline class="st10" points="422.5,1065.3 424,1064.1 445.1,1089.2 605.3,1089.2 	"/>
	<polyline class="st10" points="422.5,1065.3 444.2,1091.2 605.3,1091.2 	"/>
	<polyline class="st10" points="423.2,1064.7 444.6,1090.2 605.3,1090.2 	"/>
	<polyline class="st9" points="469.5,1108.2 591,1108.2 591,1106.2 470.5,1106.2 	"/>
	<polyline class="st10" points="455,1090.8 456.5,1089.6 470.5,1106.2 591,1106.2 	"/>
	<polyline class="st10" points="455,1090.8 469.5,1108.2 591,1108.2 	"/>
	<polyline class="st10" points="455.7,1090.2 470,1107.2 591,1107.2 	"/>
	<polyline class="st9" points="598.1,1097.7 474.4,1097.7 473.5,1099.7 598.1,1099.7 	"/>
	<polyline class="st10" points="598.1,1097.7 598.1,1099.7 473.5,1099.7 466.1,1090.8 	"/>
	<polyline class="st10" points="598.1,1097.7 474.4,1097.7 467.6,1089.6 	"/>
	<polyline class="st10" points="598.1,1098.7 473.9,1098.7 466.8,1090.2 	"/>
	<polyline class="st9" points="283.5,981.9 277.7,975 276.2,976.3 281.9,983.2 	"/>
	<line class="st10" x1="282.7" y1="982.5" x2="277.6" y2="976.5"/>
	<polyline class="st10" points="283.5,981.9 281.9,983.2 276.2,976.3 	"/>
	<line class="st10" x1="283.5" y1="981.9" x2="277.7" y2="975"/>
	<polyline class="st9" points="665.8,1053.4 648.2,1038.6 647.3,1039.7 665.9,1055.4 	"/>
	<polyline class="st12" points="668,1050.7 669.1,1051.6 665.9,1055.4 648,1040.4 	"/>
	<polyline class="st12" points="668,1050.7 665.8,1053.4 648.9,1039.3 	"/>
	<polyline class="st12" points="668.6,1051.1 665.8,1054.4 647.7,1039.2 	"/>
	<polyline class="st9" points="487.7,1116.7 584.3,1116.7 583.4,1114.7 488.7,1114.7 	"/>
	<polyline class="st10" points="480.3,1107.9 481.9,1106.5 488.7,1114.7 583.4,1114.7 647,1038.6 	"/>
	<polyline class="st10" points="480.3,1107.9 487.7,1116.7 584.3,1116.7 648,1040.4 	"/>
	<polyline class="st10" points="481.1,1107.2 488.2,1115.7 583.9,1115.7 647.7,1039.2 	"/>
	<line class="st10" x1="311.5" y1="1016.8" x2="303.5" y2="1016.8"/>
	<line class="st10" x1="301.6" y1="1016.8" x2="299" y2="1016.8"/>
	<line class="st10" x1="309.3" y1="1015.8" x2="299" y2="1015.8"/>
	<polyline class="st9" points="281.9,983.2 351.1,1065.7 352.1,1063.7 283.4,981.9 	"/>
	<polyline class="st10" points="281.9,983.2 283.4,981.9 352.1,1063.7 	"/>
	<line class="st10" x1="311" y1="1017.8" x2="351.1" y2="1065.7"/>
	<line class="st10" x1="282.7" y1="982.6" x2="351.6" y2="1064.7"/>
	<polyline class="st9" points="475.6,1055.2 468.2,1064.1 469.7,1065.3 476.5,1057.2 	"/>
	<line class="st10" x1="468.2" y1="1064.1" x2="469.7" y2="1065.3"/>
	<polyline class="st9" points="467.9,1073.8 475.3,1082.7 476.3,1080.7 469.4,1072.6 	"/>
	<polyline class="st9" points="449.7,1065.3 457.1,1074.2 458,1072.2 451.2,1064.1 	"/>
	<line class="st10" x1="597.7" y1="1056.8" x2="596.2" y2="1055.5"/>
	<line class="st10" x1="582.2" y1="1072.2" x2="587.7" y2="1065.7"/>
	<line class="st10" x1="575.1" y1="1080.7" x2="580.6" y2="1074.2"/>
	<polyline class="st9" points="422.5,1065.3 444.2,1091.2 445.1,1089.2 424,1064.1 	"/>
	<line class="st10" x1="605.3" y1="1091.2" x2="605.3" y2="1089.2"/>
	<polyline class="st9" points="455,1090.8 469.5,1108.2 470.5,1106.2 456.5,1089.6 	"/>
	<polyline class="st9" points="474.4,1097.7 467.6,1089.6 466.1,1090.8 473.5,1099.7 	"/>
	<line class="st10" x1="467.6" y1="1089.6" x2="466.1" y2="1090.8"/>
	<polyline class="st9" points="480.3,1107.9 487.7,1116.7 488.7,1114.7 481.9,1106.5 	"/>
	<polyline class="st9" points="584.3,1116.7 648.5,1039.8 647,1038.6 583.4,1114.7 	"/>
	<polyline class="st9" points="310.6,1015.8 299,1015.8 299,1017.8 312.3,1017.8 	"/>
	<line class="st10" x1="311" y1="1017.8" x2="299" y2="1017.8"/>
	<line class="st10" x1="281.9" y1="983.2" x2="309.3" y2="1015.8"/>
	<line class="st10" x1="647.2" y1="1038.7" x2="648.7" y2="1040"/>
	<line class="st10" x1="591" y1="1108.2" x2="591" y2="1106.2"/>
	<polyline class="st9" points="668,1050.7 665.8,1053.4 665.9,1055.4 669.1,1051.6 	"/>
	<line class="st10" x1="648.5" y1="1039.8" x2="647" y2="1038.6"/>
</g>
<g id="_40_to_45">
	<polyline class="st25" points="657.5,1082.8 651.6,1089.9 653.1,1091.2 659,1084.1 	"/>
	<polyline class="st26" points="657.5,1082.8 659,1084.1 653.1,1091.2 	"/>
	<polyline class="st25" points="670.1,1104.6 652.6,1089.8 651.7,1090.9 670.3,1106.5 	"/>
	<polyline class="st27" points="672.4,1101.9 673.5,1102.8 670.3,1106.5 652.4,1091.5 	"/>
	<polyline class="st27" points="672.4,1101.9 670.1,1104.6 653.3,1090.5 	"/>
	<polyline class="st27" points="673,1102.3 670.3,1105.6 652.1,1090.4 	"/>
	<polyline class="st25" points="440.8,1175.2 446.8,1182.3 449.4,1182.3 443.4,1175.2 	"/>
	<line class="st26" x1="444.2" y1="1176.2" x2="448.6" y2="1181.3"/>
	<line class="st26" x1="441.7" y1="1176.2" x2="446" y2="1181.3"/>
	<line class="st26" x1="442.1" y1="1175.2" x2="448.1" y2="1182.3"/>
	<polyline class="st25" points="455.2,1175.2 449.2,1182.3 451.8,1182.3 457.8,1175.2 	"/>
	<line class="st26" x1="457" y1="1176.2" x2="452.6" y2="1181.3"/>
	<line class="st26" x1="454.4" y1="1176.2" x2="450.1" y2="1181.3"/>
	<line class="st26" x1="456.5" y1="1175.2" x2="450.5" y2="1182.3"/>
	<polyline class="st25" points="293.6,1066.3 312.1,1050.8 311.2,1049.7 293.8,1064.3 	"/>
	<polyline class="st27" points="290.5,1062.5 291.5,1061.6 293.8,1064.3 310.4,1050.4 	"/>
	<polyline class="st27" points="290.5,1062.5 293.6,1066.3 311.3,1051.5 	"/>
	<polyline class="st27" points="291,1062.1 293.8,1065.3 311.6,1050.3 	"/>
	<polyline class="st25" points="431.9,1142.2 609,1142.2 610.7,1140.2 432.8,1140.2 	"/>
	<polyline class="st26" points="387.7,1086.4 432.8,1140.2 609.4,1140.2 	"/>
	<polyline class="st26" points="385.1,1086.4 431.9,1142.2 607.7,1142.2 	"/>
	<polyline class="st26" points="385.6,1085.4 432.4,1141.2 609.8,1141.2 	"/>
	<polyline class="st25" points="427.9,1150.7 601.9,1150.7 603.5,1148.7 428.8,1148.7 	"/>
	<polyline class="st26" points="376.6,1086.4 428.8,1148.7 602.3,1148.7 	"/>
	<polyline class="st26" points="374,1086.4 427.9,1150.7 600.6,1150.7 	"/>
	<polyline class="st26" points="374.5,1085.4 428.4,1149.8 602.7,1149.8 	"/>
	<polyline class="st25" points="581.8,1176.2 653.4,1090.8 651.9,1089.6 580.9,1174.2 	"/>
	<line class="st26" x1="616.5" y1="1131.8" x2="651.9" y2="1089.6"/>
	<line class="st26" x1="581.8" y1="1176.2" x2="653.4" y2="1090.8"/>
	<line class="st26" x1="581.3" y1="1175.2" x2="652.7" y2="1090.2"/>
	<polyline class="st25" points="397.1,1084.5 339.8,1084.5 341.5,1086.4 398.8,1086.4 	"/>
	<line class="st26" x1="374" y1="1086.4" x2="342.8" y2="1086.4"/>
	<line class="st26" x1="397.1" y1="1084.5" x2="341.1" y2="1084.5"/>
	<line class="st26" x1="396.7" y1="1085.4" x2="340.6" y2="1085.4"/>
	<polyline class="st25" points="435.8,1133.7 616.1,1133.7 617.8,1131.8 436.8,1131.8 	"/>
	<polyline class="st26" points="397.1,1084.5 436.8,1131.8 616.5,1131.8 	"/>
	<polyline class="st26" points="396.2,1086.4 435.8,1133.7 614.9,1133.7 	"/>
	<polyline class="st26" points="396.7,1085.4 436.3,1132.7 617,1132.7 	"/>
	<polyline class="st25" points="416,1176.2 581.8,1176.2 580.9,1174.2 416.9,1174.2 	"/>
	<polyline class="st26" points="391.9,1144.4 416.9,1174.2 580.9,1174.2 	"/>
	<polyline class="st26" points="390.4,1145.7 416,1176.2 581.8,1176.2 	"/>
	<polyline class="st26" points="391.1,1145 416.5,1175.2 581.3,1175.2 	"/>
	<polyline class="st25" points="420,1167.8 587.6,1167.8 589.3,1165.8 420.9,1165.8 	"/>
	<polyline class="st26" points="370,1105.1 420.9,1165.8 588,1165.8 	"/>
	<polyline class="st26" points="367.4,1105.1 420,1167.8 586.3,1167.8 	"/>
	<polyline class="st26" points="367.9,1104.2 420.5,1166.7 588.4,1166.7 	"/>
	<polyline class="st25" points="305,1043.8 390.4,1145.7 391.9,1144.4 306.5,1042.6 	"/>
	<line class="st26" x1="358.9" y1="1105.1" x2="391.9" y2="1144.4"/>
	<line class="st26" x1="306.5" y1="1042.6" x2="357.3" y2="1103.1"/>
	<line class="st26" x1="305" y1="1043.8" x2="390.4" y2="1145.7"/>
	<line class="st26" x1="305.7" y1="1043.2" x2="391.1" y2="1145"/>
	<polyline class="st25" points="379.5,1103.1 356,1103.1 357.7,1105.1 381.1,1105.1 	"/>
	<line class="st26" x1="367.4" y1="1105.1" x2="358.9" y2="1105.1"/>
	<line class="st26" x1="379.5" y1="1103.1" x2="357.3" y2="1103.1"/>
	<line class="st26" x1="379" y1="1104.2" x2="356.8" y2="1104.2"/>
	<polyline class="st25" points="424,1159.2 594.7,1159.2 596.4,1157.2 424.9,1157.2 	"/>
	<polyline class="st26" points="379.5,1103.1 424.9,1157.2 595.1,1157.2 	"/>
	<polyline class="st26" points="378.5,1105.1 424,1159.2 593.5,1159.2 	"/>
	<polyline class="st26" points="379,1104.2 424.4,1158.2 595.6,1158.2 	"/>
	<polyline class="st25" points="384.2,1085.4 431.9,1142.2 432.8,1140.2 386.8,1085.4 	"/>
	<polyline class="st25" points="373.1,1085.4 427.9,1150.7 428.8,1148.7 375.7,1085.4 	"/>
	<line class="st26" x1="609.4" y1="1140.2" x2="614.9" y2="1133.7"/>
	<line class="st26" x1="602.3" y1="1148.7" x2="607.7" y2="1142.2"/>
	<line class="st26" x1="595.1" y1="1157.2" x2="600.6" y2="1150.7"/>
	<line class="st26" x1="588" y1="1165.8" x2="593.5" y2="1159.2"/>
	<line class="st26" x1="580.9" y1="1174.2" x2="586.3" y2="1167.8"/>
	<line class="st26" x1="385.1" y1="1086.4" x2="376.6" y2="1086.4"/>
	<line class="st26" x1="396.2" y1="1086.4" x2="387.7" y2="1086.4"/>
	<polyline class="st25" points="394.5,1084.5 435.8,1133.7 436.8,1131.8 397.1,1084.5 	"/>
	<polyline class="st25" points="390.4,1145.7 416,1176.2 416.9,1174.2 391.9,1144.4 	"/>
	<polyline class="st25" points="366.6,1104.2 420,1167.8 420.9,1165.8 369.2,1104.2 	"/>
	<line class="st26" x1="378.5" y1="1105.1" x2="370" y2="1105.1"/>
	<polyline class="st25" points="376.9,1103.1 424,1159.2 424.9,1157.2 379.5,1103.1 	"/>
	<line class="st26" x1="658.3" y1="1083.5" x2="653.2" y2="1089.6"/>
	<line class="st26" x1="651.6" y1="1089.9" x2="653.1" y2="1091.2"/>
	<line class="st26" x1="657.5" y1="1082.8" x2="651.6" y2="1089.9"/>
	<line class="st26" x1="653.4" y1="1090.8" x2="651.9" y2="1089.6"/>
	<polyline class="st25" points="672.4,1101.9 670.1,1104.6 670.3,1106.5 673.5,1102.8 	"/>
	<polyline class="st25" points="290.5,1062.5 293.6,1066.3 293.8,1064.3 291.5,1061.6 	"/>
</g>
<g id="_46_to_52">
	<polyline class="st20" points="446.8,1185.1 441.4,1191.6 442.9,1192.9 449.4,1185.1 	"/>
	<line class="st21" x1="448.1" y1="1185.1" x2="443" y2="1191.2"/>
	<line class="st21" x1="448.6" y1="1186.2" x2="442.9" y2="1192.9"/>
	<line class="st21" x1="446" y1="1186.2" x2="441.4" y2="1191.6"/>
	<polyline class="st20" points="449.2,1185.1 455.7,1192.9 457.2,1191.6 451.8,1185.1 	"/>
	<line class="st21" x1="450.5" y1="1185.1" x2="455.6" y2="1191.2"/>
	<line class="st21" x1="452.6" y1="1186.2" x2="457.2" y2="1191.6"/>
	<line class="st21" x1="450" y1="1186.2" x2="455.7" y2="1192.9"/>
	<polyline class="st20" points="494.4,1191.6 487.3,1200.1 488.8,1201.4 495.9,1192.9 	"/>
	<polyline class="st21" points="494.4,1191.6 495.9,1192.9 488.8,1201.4 	"/>
	<line class="st21" x1="494.4" y1="1191.6" x2="487.3" y2="1200.1"/>
	<line class="st21" x1="495.1" y1="1192.2" x2="488" y2="1200.8"/>
	<polyline class="st20" points="482.3,1200.1 475.1,1208.6 476.6,1209.9 483.8,1201.4 	"/>
	<polyline class="st21" points="482.3,1200.1 483.8,1201.4 476.6,1209.9 	"/>
	<line class="st21" x1="482.3" y1="1200.1" x2="475.1" y2="1208.6"/>
	<line class="st21" x1="483" y1="1200.8" x2="475.9" y2="1209.3"/>
	<polyline class="st20" points="470.2,1210.2 601.6,1210.2 601.6,1208.2 469.3,1208.2 	"/>
	<polyline class="st21" points="463.4,1218.4 461.9,1217.1 469.3,1208.2 601.6,1208.2 	"/>
	<polyline class="st21" points="463.4,1218.4 470.2,1210.2 601.6,1210.2 	"/>
	<polyline class="st21" points="462.7,1217.7 469.8,1209.3 601.6,1209.3 	"/>
	<polyline class="st20" points="452,1218.8 594.4,1218.8 594.4,1216.8 451.1,1216.8 	"/>
	<polyline class="st21" points="438,1235.4 436.5,1234.1 451.1,1216.8 594.4,1216.8 	"/>
	<polyline class="st21" points="438,1235.4 452,1218.8 594.4,1218.8 	"/>
	<polyline class="st21" points="437.3,1234.8 451.6,1217.7 594.4,1217.7 	"/>
	<polyline class="st20" points="482.6,1227.3 587.3,1227.3 587.3,1225.3 483.5,1225.3 	"/>
	<polyline class="st21" points="475.2,1218.4 476.7,1217.1 483.5,1225.3 587.3,1225.3 	"/>
	<polyline class="st21" points="475.2,1218.4 482.6,1227.3 587.3,1227.3 	"/>
	<polyline class="st21" points="475.9,1217.7 483.1,1226.2 587.3,1226.2 	"/>
	<polyline class="st20" points="458.2,1244.2 573.1,1244.2 573.1,1242.3 459.1,1242.3 	"/>
	<polyline class="st21" points="450.8,1235.4 452.3,1234.1 459.1,1242.3 573.1,1242.3 	"/>
	<polyline class="st21" points="450.8,1235.4 458.2,1244.2 573.1,1244.2 	"/>
	<polyline class="st21" points="451.6,1234.8 458.7,1243.3 573.1,1243.3 	"/>
	<polyline class="st20" points="566.7,1252.4 709.4,1082.3 707.8,1081 565.1,1251.1 	"/>
	<polyline class="st21" points="566.7,1252.4 565.1,1251.1 707.8,1081 	"/>
	<line class="st21" x1="566.7" y1="1252.4" x2="709.4" y2="1082.3"/>
	<line class="st21" x1="565.9" y1="1251.8" x2="708.6" y2="1081.7"/>
	<polyline class="st20" points="726.1,1096 708.5,1081.3 707.6,1082.4 726.3,1098.1 	"/>
	<polyline class="st24" points="728.4,1093.3 729.5,1094.2 726.3,1098.1 708.4,1083.1 	"/>
	<polyline class="st24" points="728.4,1093.3 726.1,1096 709.3,1081.9 	"/>
	<polyline class="st24" points="728.9,1093.8 726.2,1097.1 708.1,1081.9 	"/>
	<polyline class="st20" points="556.5,1261.4 550.6,1268.5 552.1,1269.8 558,1262.7 	"/>
	<line class="st21" x1="557.3" y1="1262.1" x2="552.2" y2="1268.1"/>
	<line class="st21" x1="550.6" y1="1268.5" x2="552.1" y2="1269.8"/>
	<polyline class="st21" points="556.5,1261.4 558,1262.7 552.1,1269.8 	"/>
	<line class="st21" x1="556.5" y1="1261.4" x2="550.6" y2="1268.5"/>
	<polyline class="st20" points="584.8,1266.7 566.3,1251.2 565.4,1252.3 582.8,1266.9 	"/>
	<polyline class="st24" points="581.6,1270.5 580.6,1269.6 582.8,1266.9 566.2,1252.9 	"/>
	<polyline class="st24" points="581.6,1270.5 584.8,1266.7 567.1,1251.9 	"/>
	<polyline class="st24" points="581.1,1270 583.8,1266.8 565.9,1251.8 	"/>
	<polyline class="st20" points="565.1,1251.1 559.2,1258.2 560.8,1259.4 566.6,1252.4 	"/>
	<line class="st21" x1="565.9" y1="1251.8" x2="560.8" y2="1257.8"/>
	<line class="st21" x1="565.1" y1="1251.1" x2="559.2" y2="1258.2"/>
	<polyline class="st20" points="349.6,1297.1 343.1,1304.8 345.7,1304.8 351.2,1298.4 	"/>
	<line class="st21" x1="350.4" y1="1297.8" x2="345.3" y2="1303.8"/>
	<polyline class="st21" points="349.6,1297.1 351.2,1298.4 346.6,1303.8 	"/>
	<line class="st21" x1="349.6" y1="1297.1" x2="344" y2="1303.8"/>
	<polyline class="st20" points="335.3,1298.4 340.7,1304.8 343.3,1304.8 336.8,1297.1 	"/>
	<line class="st21" x1="336.1" y1="1297.8" x2="341.2" y2="1303.8"/>
	<polyline class="st21" points="335.3,1298.4 336.8,1297.1 342.5,1303.8 	"/>
	<line class="st21" x1="335.3" y1="1298.4" x2="339.9" y2="1303.8"/>
	<polyline class="st20" points="421.9,1235.7 580.2,1235.7 580.2,1233.8 423.6,1233.8 	"/>
	<line class="st21" x1="423.6" y1="1233.8" x2="580.2" y2="1233.8"/>
	<line class="st21" x1="424.6" y1="1235.7" x2="580.2" y2="1235.7"/>
	<line class="st21" x1="424.1" y1="1234.8" x2="580.2" y2="1234.8"/>
	<polyline class="st20" points="615.8,1191.3 402.9,1191.3 403.9,1193.2 615.8,1193.2 	"/>
	<polyline class="st21" points="615.8,1191.3 615.8,1193.2 403.9,1193.2 	"/>
	<line class="st21" x1="615.8" y1="1191.3" x2="402.9" y2="1191.3"/>
	<line class="st21" x1="615.8" y1="1192.2" x2="403.4" y2="1192.2"/>
	<polyline class="st20" points="469.6,1192.9 477.1,1201.7 478,1199.7 471.2,1191.6 	"/>
	<polyline class="st21" points="469.6,1192.9 471.2,1191.6 478,1199.7 	"/>
	<line class="st21" x1="469.6" y1="1192.9" x2="477.1" y2="1201.7"/>
	<line class="st21" x1="470.4" y1="1192.2" x2="477.5" y2="1200.8"/>
	<polyline class="st20" points="477.1,1201.7 608.7,1201.7 608.7,1199.7 478,1199.7 	"/>
	<line class="st21" x1="478" y1="1199.7" x2="608.7" y2="1199.7"/>
	<line class="st21" x1="477.1" y1="1201.7" x2="608.7" y2="1201.7"/>
	<line class="st21" x1="477.5" y1="1200.8" x2="608.7" y2="1200.8"/>
	<polyline class="st20" points="244.9,1298.4 251.7,1290.3 250.8,1288.3 243.4,1297.1 	"/>
	<polyline class="st21" points="244.9,1298.4 243.4,1297.1 250.8,1288.3 	"/>
	<line class="st21" x1="244.9" y1="1298.4" x2="251.7" y2="1290.3"/>
	<line class="st21" x1="244.1" y1="1297.8" x2="251.3" y2="1289.2"/>
	<polyline class="st20" points="402.9,1191.3 319.1,1290.3 321.7,1290.3 403.9,1193.2 	"/>
	<line class="st21" x1="403.9" y1="1193.2" x2="321.7" y2="1290.3"/>
	<line class="st21" x1="402.9" y1="1191.3" x2="320.8" y2="1288.3"/>
	<line class="st21" x1="403.4" y1="1192.2" x2="321.2" y2="1289.2"/>
	<polyline class="st20" points="251.7,1290.3 321.7,1290.3 323.3,1288.3 250.8,1288.3 	"/>
	<line class="st21" x1="250.8" y1="1288.3" x2="320.8" y2="1288.3"/>
	<line class="st21" x1="251.7" y1="1290.3" x2="321.7" y2="1290.3"/>
	<line class="st21" x1="251.3" y1="1289.2" x2="321.2" y2="1289.2"/>
	<polyline class="st20" points="423.6,1233.8 370.3,1296.8 371.2,1298.7 426.2,1233.8 	"/>
	<polyline class="st21" points="426.2,1233.8 371.2,1298.7 228.1,1298.7 	"/>
	<polyline class="st21" points="423.6,1233.8 370.3,1296.8 228.1,1296.8 	"/>
	<polyline class="st21" points="424.9,1233.8 370.7,1297.8 228.1,1297.8 	"/>
	<polyline class="st20" points="467,1243.9 476,1254.6 477.5,1253.3 468.6,1242.6 	"/>
	<polyline class="st21" points="467,1243.9 468.6,1242.6 477.5,1253.3 	"/>
	<line class="st21" x1="467" y1="1243.9" x2="476" y2="1254.6"/>
	<line class="st21" x1="467.8" y1="1243.3" x2="476.8" y2="1254"/>
	<line class="st21" x1="475.1" y1="1208.6" x2="476.6" y2="1209.9"/>
	<polyline class="st20" points="463.4,1218.4 470.2,1210.2 469.3,1208.2 461.9,1217.1 	"/>
	<polyline class="st20" points="438,1235.4 452,1218.8 451.1,1216.8 436.5,1234.1 	"/>
	<polyline class="st20" points="475.2,1218.4 482.6,1227.3 483.5,1225.3 476.7,1217.1 	"/>
	<polyline class="st20" points="450.8,1235.4 458.2,1244.2 459.1,1242.3 452.3,1234.1 	"/>
	<polyline class="st20" points="370.3,1296.8 228.1,1296.8 228.1,1298.7 371.2,1298.7 	"/>
	<polyline class="st9" points="310.6,1015.8 299,1015.8 299,1017.8 312.3,1017.8 	"/>
	<line class="st10" x1="311" y1="1017.8" x2="299" y2="1017.8"/>
	<line class="st10" x1="281.9" y1="983.2" x2="309.3" y2="1015.8"/>
	<line class="st21" x1="709.4" y1="1082.3" x2="707.8" y2="1081"/>
	<polyline class="st20" points="713.5,1074.3 707.5,1081.4 709,1082.7 715,1075.7 	"/>
	<line class="st21" x1="714.2" y1="1075" x2="709.1" y2="1081"/>
	<line class="st21" x1="707.5" y1="1081.4" x2="709" y2="1082.7"/>
	<polyline class="st21" points="713.5,1074.3 715,1075.7 709,1082.7 	"/>
	<line class="st21" x1="713.5" y1="1074.3" x2="707.5" y2="1081.4"/>
	<polyline class="st20" points="728.4,1093.3 726.1,1096 726.3,1098.1 729.5,1094.2 	"/>
	<line class="st21" x1="441.4" y1="1191.6" x2="442.9" y2="1192.9"/>
	<line class="st21" x1="455.7" y1="1192.9" x2="457.2" y2="1191.6"/>
	<line class="st21" x1="487.3" y1="1200.1" x2="488.8" y2="1201.4"/>
	<line class="st21" x1="601.6" y1="1210.2" x2="601.6" y2="1208.2"/>
	<line class="st21" x1="594.4" y1="1218.8" x2="594.4" y2="1216.8"/>
	<line class="st21" x1="587.3" y1="1227.3" x2="587.3" y2="1225.3"/>
	<line class="st21" x1="573.1" y1="1244.2" x2="573.1" y2="1242.3"/>
	<polyline class="st20" points="581.6,1270.5 584.8,1266.7 582.8,1266.9 580.6,1269.6 	"/>
	<line class="st21" x1="565.1" y1="1251.1" x2="566.6" y2="1252.4"/>
	<line class="st21" x1="566.2" y1="1252.9" x2="560.8" y2="1259.4"/>
	<line class="st21" x1="566.6" y1="1252.4" x2="566.2" y2="1252.9"/>
	<line class="st21" x1="580.2" y1="1235.7" x2="580.2" y2="1233.8"/>
	<line class="st21" x1="608.7" y1="1201.7" x2="608.7" y2="1199.7"/>
</g>
<g id="_53_to_59">
	<polyline class="st1" points="569.2,1283.2 551.6,1268.4 550.7,1269.5 569.3,1285.2 	"/>
	<polyline class="st4" points="571.4,1280.4 572.5,1281.3 569.3,1285.2 551.5,1270.2 	"/>
	<polyline class="st4" points="571.4,1280.4 569.2,1283.2 552.4,1269 	"/>
	<polyline class="st4" points="572,1280.9 569.2,1284.1 551.2,1269 	"/>
	<polyline class="st1" points="402.1,1298.7 527.3,1298.7 527.3,1296.8 401.2,1296.8 	"/>
	<polyline class="st2" points="395.2,1306.9 393.7,1305.6 401.2,1296.8 527.3,1296.8 	"/>
	<polyline class="st2" points="395.2,1306.9 402.1,1298.7 527.3,1298.7 	"/>
	<polyline class="st2" points="394.5,1306.3 401.6,1297.8 527.3,1297.8 	"/>
	<polyline class="st1" points="370.9,1315.4 377.8,1307.2 376.8,1305.3 369.4,1314.1 	"/>
	<polyline class="st2" points="370.9,1315.4 369.4,1314.1 376.8,1305.3 	"/>
	<line class="st2" x1="370.9" y1="1315.4" x2="377.8" y2="1307.2"/>
	<line class="st2" x1="370.1" y1="1314.8" x2="377.3" y2="1306.3"/>
	<polyline class="st1" points="377.8,1307.2 446.1,1307.2 447,1305.3 376.8,1305.3 	"/>
	<polyline class="st2" points="376.8,1305.3 447,1305.3 454.4,1314.1 	"/>
	<polyline class="st2" points="377.8,1307.2 446.1,1307.2 452.9,1315.4 	"/>
	<polyline class="st2" points="377.3,1306.3 446.5,1306.3 453.7,1314.8 	"/>
	<polyline class="st28" points="491.2,1339.3 396.3,1339.3 395.3,1341.3 492.1,1341.3 	"/>
	<polyline class="st29" points="492.1,1341.3 395.3,1341.3 387.9,1332.4 	"/>
	<polyline class="st29" points="491.2,1339.3 396.3,1339.3 389.5,1331.1 	"/>
	<polyline class="st29" points="491.6,1340.2 395.8,1340.2 388.7,1331.8 	"/>
	<polyline class="st1" points="398,1332.4 406.5,1322.2 403.9,1322.2 396.5,1331.1 	"/>
	<polyline class="st2" points="398,1332.4 396.5,1331.1 403.9,1322.2 	"/>
	<line class="st2" x1="398" y1="1332.4" x2="404.8" y2="1324.2"/>
	<line class="st2" x1="397.2" y1="1331.8" x2="404.3" y2="1323.3"/>
	<polyline class="st1" points="340.7,1307.7 335.3,1314.1 336.8,1315.4 343.3,1307.7 	"/>
	<line class="st2" x1="342.1" y1="1307.7" x2="337" y2="1313.7"/>
	<line class="st2" x1="342.5" y1="1308.7" x2="336.8" y2="1315.4"/>
	<line class="st2" x1="339.9" y1="1308.7" x2="335.3" y2="1314.1"/>
	<polyline class="st1" points="343.1,1307.7 349.6,1315.4 351.1,1314.1 345.7,1307.7 	"/>
	<line class="st2" x1="344.4" y1="1307.7" x2="349.5" y2="1313.7"/>
	<line class="st2" x1="346.6" y1="1308.7" x2="351.1" y2="1314.1"/>
	<line class="st2" x1="343.9" y1="1308.7" x2="349.6" y2="1315.4"/>
	<polyline class="st28" points="496.6,1332.8 491.2,1339.3 492.1,1341.3 499.3,1332.8 	"/>
	<line class="st29" x1="498.4" y1="1333.8" x2="492.1" y2="1341.3"/>
	<line class="st29" x1="495.8" y1="1333.8" x2="491.2" y2="1339.3"/>
	<line class="st29" x1="497.9" y1="1332.8" x2="491.6" y2="1340.2"/>
	<polyline class="st1" points="498.3,1330.8 379.4,1330.8 378.5,1332.8 499.3,1332.8 	"/>
	<polyline class="st2" points="496.6,1332.8 378.5,1332.8 364.2,1315.8 	"/>
	<polyline class="st2" points="498.3,1330.8 379.4,1330.8 366.8,1315.8 	"/>
	<polyline class="st2" points="498.8,1331.8 379,1331.8 364.7,1314.8 	"/>
	<polyline class="st1" points="490.9,1331.1 483.5,1322.2 482.6,1324.2 489.4,1332.4 	"/>
	<polyline class="st1" points="483.5,1322.2 403.9,1322.2 402.2,1324.2 482.6,1324.2 	"/>
	<line class="st2" x1="490.9" y1="1331.1" x2="489.4" y2="1332.4"/>
	<polyline class="st2" points="484.3,1326.4 482.6,1324.2 404.8,1324.2 	"/>
	<polyline class="st2" points="490.1,1331.8 483,1323.3 404.3,1323.3 	"/>
	<polyline class="st1" points="472.7,1322.6 465.2,1313.8 464.3,1315.8 471.2,1323.9 	"/>
	<polyline class="st2" points="472.7,1322.6 471.2,1323.9 464.3,1315.8 319,1315.8 	"/>
	<polyline class="st2" points="472.7,1322.6 465.2,1313.8 319,1313.8 	"/>
	<polyline class="st2" points="471.9,1323.3 464.8,1314.8 319,1314.8 	"/>
	<line class="st2" x1="527.8" y1="1278.4" x2="519.8" y2="1278.4"/>
	<line class="st2" x1="517.9" y1="1278.4" x2="513.9" y2="1278.4"/>
	<line class="st2" x1="541.4" y1="1279.3" x2="499.9" y2="1279.3"/>
	<line class="st2" x1="543.1" y1="1277.4" x2="499.9" y2="1277.4"/>
	<polyline class="st1" points="550.6,1268.5 498.3,1330.8 499.3,1332.8 552.1,1269.8 	"/>
	<polyline class="st2" points="550.6,1268.5 552.1,1269.8 499.3,1332.8 	"/>
	<line class="st2" x1="550.6" y1="1268.5" x2="543.1" y2="1277.4"/>
	<line class="st2" x1="551.3" y1="1269.1" x2="498.8" y2="1331.8"/>
	<polyline class="st1" points="478.7,1257.9 496.8,1279.3 497.7,1277.4 480.3,1256.6 	"/>
	<polyline class="st2" points="480.3,1256.6 497.7,1277.4 499.9,1277.4 	"/>
	<polyline class="st2" points="478.7,1257.9 496.8,1279.3 499.9,1279.3 	"/>
	<polyline class="st2" points="479.5,1257.2 497.3,1278.4 499.9,1278.4 	"/>
	<polyline class="st1" points="571.4,1280.4 569.2,1283.2 569.3,1285.2 572.5,1281.3 	"/>
	<polyline class="st1" points="395.2,1306.9 402.1,1298.7 401.2,1296.8 393.7,1305.6 	"/>
	<line class="st2" x1="527.3" y1="1298.7" x2="527.3" y2="1296.8"/>
	<polyline class="st1" points="446.1,1307.2 452.9,1315.4 454.4,1314.1 447,1305.3 	"/>
	<line class="st2" x1="452.9" y1="1315.4" x2="454.4" y2="1314.1"/>
	<polyline class="st1" points="379.4,1330.8 365.9,1314.8 363.4,1314.8 378.5,1332.8 	"/>
	<line class="st2" x1="499.3" y1="1332.8" x2="498.3" y2="1332.8"/>
	<polyline class="st2" points="490.9,1331.1 483.5,1322.2 403.9,1322.2 	"/>
	<polyline class="st1" points="465.2,1313.8 319,1313.8 319,1315.8 464.3,1315.8 	"/>
	<polyline class="st1" points="544.4,1277.4 499.9,1277.4 499.9,1279.3 542.8,1279.3 	"/>
	<line class="st2" x1="543.6" y1="1278.4" x2="535.7" y2="1278.4"/>
	<line class="st2" x1="533.7" y1="1278.4" x2="529.7" y2="1278.4"/>
	<line class="st2" x1="511.9" y1="1278.4" x2="504" y2="1278.4"/>
	<line class="st2" x1="502" y1="1278.4" x2="499.9" y2="1278.4"/>
	<line class="st2" x1="499.9" y1="1277.4" x2="499.9" y2="1279.3"/>
	<line class="st2" x1="541.4" y1="1279.3" x2="498.3" y2="1330.8"/>
	<polyline class="st1" points="496.8,1279.3 499.9,1279.3 499.9,1277.4 497.7,1277.4 	"/>
	<line class="st2" x1="499.9" y1="1279.3" x2="499.9" y2="1277.4"/>
	<polyline class="st1" points="571.4,1280.4 569.2,1283.2 569.3,1285.2 572.5,1281.3 	"/>
	<polyline class="st1" points="395.2,1306.9 402.1,1298.7 401.2,1296.8 393.7,1305.6 	"/>
	<line class="st2" x1="527.3" y1="1298.7" x2="527.3" y2="1296.8"/>
	<polyline class="st1" points="446.1,1307.2 452.9,1315.4 454.4,1314.1 447,1305.3 	"/>
	<line class="st2" x1="452.9" y1="1315.4" x2="454.4" y2="1314.1"/>
	<polyline class="st1" points="379.4,1330.8 365.9,1314.8 363.4,1314.8 378.5,1332.8 	"/>
	<line class="st2" x1="499.3" y1="1332.8" x2="498.3" y2="1332.8"/>
	<polyline class="st2" points="490.9,1331.1 483.5,1322.2 403.9,1322.2 	"/>
	<polyline class="st1" points="465.2,1313.8 319,1313.8 319,1315.8 464.3,1315.8 	"/>
	<polyline class="st1" points="544.4,1277.4 499.9,1277.4 499.9,1279.3 542.8,1279.3 	"/>
	<line class="st2" x1="543.6" y1="1278.4" x2="535.7" y2="1278.4"/>
	<line class="st2" x1="533.7" y1="1278.4" x2="529.7" y2="1278.4"/>
	<line class="st2" x1="511.9" y1="1278.4" x2="504" y2="1278.4"/>
	<line class="st2" x1="502" y1="1278.4" x2="499.9" y2="1278.4"/>
	<line class="st2" x1="499.9" y1="1277.4" x2="499.9" y2="1279.3"/>
	<line class="st2" x1="541.4" y1="1279.3" x2="498.3" y2="1330.8"/>
	<polyline class="st1" points="496.8,1279.3 499.9,1279.3 499.9,1277.4 497.7,1277.4 	"/>
	<line class="st2" x1="499.9" y1="1279.3" x2="499.9" y2="1277.4"/>
	<polyline class="st28" points="396.3,1339.3 389.5,1331.1 387.9,1332.4 395.3,1341.3 	"/>
	<line class="st29" x1="389.5" y1="1331.1" x2="387.9" y2="1332.4"/>
	<line class="st2" x1="335.3" y1="1314.1" x2="336.8" y2="1315.4"/>
	<line class="st2" x1="349.6" y1="1315.4" x2="351.1" y2="1314.1"/>
	<line class="st2" x1="489.4" y1="1332.4" x2="485.6" y2="1327.9"/>
</g>
</svg>
